<svg width="481" height="236" viewBox="0 0 481 236" xmlns="http://www.w3.org/2000/svg">
    <path d="M0 228.936h222.607l-113.077-19.54s-6.454-1.434-7.882-4.858l.57-5.716s2.061-1.997 10.174-4.858l110.144-39.19s4.95-1.286 6.89-4.973c2.606-4.954 2.151-10.221 2.151-10.221l-16.795-91.654-6.53-37.359s.287-7.424-10.002-5.997L71.36 14.567s-9.143-.57-6.857 13.998l30.862 163.972s1.146 8.282 22.29 10.567l142.607 21.422s10.29 2.573 26.86-5.997l89.739-46.851s8.861-4.858-2.856-5.716l-126.6-13.997-116.599 43.99 75.447 10.855 97.453-42.563-74.876-8.57-25.433-141.974-131.46 13.71 29.146 160.541 21.905-7.424s-16.206-82.981 48.227-89.235c64.434-6.253 112.187-10.624 115.728-34.703 8.132-55.338-44.008-70.41-45.096-25.326-1.345 55.651 103.581 16.257 103.581 16.257l91.954-34.39-89.828 20.008L361.693 0l77.88 8.756s11.57-.627 0 8.442L383.585 64.72l-6.57-6.567L430.5 20.321l-86.326 67.53 3.381-34.702 13.51-6.88-10.321-10.004s-56.923 41.897-81.946 29.704c-25.023-12.193-12.825-47.837 10.95-50.333 23.767-2.502 46.363 60.407-47.543 75.346-93.907 14.938-80.64 79.224-80.64 79.224l73.225-24.18 154.037 16.851s6.576 0 7.146 4v5.428s-.474 3.68-9.393 7.943l-96.596 52.176s-6 5.46-22.577 2.887l-30.235-6.381H481" stroke-width="3.5" fill="none" fill-rule="evenodd" stroke-linecap="round" stroke-linejoin="round"/>
</svg>
