<svg width="474" height="411" viewBox="0 0 474 411" xmlns="http://www.w3.org/2000/svg">
    <path d="M474 344.082v-3.025H356.672c-.151-1.058-.378-2.117-.756-3.175-3.024-9.3-11.34-19.584-20.714-22.533-.302-.303-.605-.68-.907-1.059 22.604-1.588 42.26-2.949 49.214-3.402.68 0 1.21-.454 1.36-1.059.454-.907 3.252-5.52 6.427-10.888 30.617-51.493 41.503-72.211 39.991-76.37-2.117-5.974-11.49-5.822-16.48-5.822h-1.21c-7.106 0-72.876 1.89-110.146 3.478 3.024-23.516-.227-61.928-6.124-77.73-.983-2.647-1.663-5.37-2.343-8.016-1.89-7.486-3.856-15.123-12.02-19.508-7.485-4.008-20.11-9.3-29.56-11.645-.68-.15-1.436.227-1.738.908 0 0-.076.075-.076.15-.075-.226-.15-.453-.226-.755-1.134-4.159 2.192-9.074 5.594-14.291.378-.53.756-1.059 1.134-1.664 4.687-7.183 6.275-13.686 7.862-20.567a203.02 203.02 0 0 1 2.041-7.863c4.083.378 9.677-1.588 11.945-5.52 3.402-5.747.907-8.696-1.663-11.872-.53-.68-1.059-1.285-1.588-2.041-3.326-4.537-5.821-9.376-8.316-14.064-1.814-3.403-3.629-6.957-5.82-10.36C256.428 5.712 244.03-.564 232.388.04c-8.694.454-15.574 4.613-19.58 11.796-4.839-1.21-8.77-.303-11.718 2.798-6.124 6.502-5.972 21.398-4.234 31.38-1.134-.53-2.268-.757-3.553-.606-3.855.53-6.88 4.462-7.333 9.603-.604 7.562 1.89 13.61 6.729 16.71-.454 1.21-.908 2.345-1.286 3.555-2.57 7.637-5.82 12.022-9.525 14.366-.227.076-.454.076-.605.227-.756.454-1.512.832-2.343 1.134-5.821 1.966-12.55.076-19.429-1.89-4.99-1.361-9.677-2.722-14.061-2.57-28.652.982-66.224 36.52-70.23 41.284-.303.378-.454.832-.303 1.361.15.53.529.908.982 1.059 1.512.53 3.251 1.436 5.292 2.722-3.704 3.024-7.106 5.898-9.827 8.166-1.966 1.664-3.705 3.025-4.914 4.083-2.42 2.042-4.99 4.083-7.409 6.05-6.275 5.065-12.852 10.283-18.748 16.18-7.182 7.184-10.584 13.762-10.055 19.585.378 4.385 3.024 8.317 7.787 11.644 5.745 4.008 14.288 9.3 22.377 12.174 3.553 1.285 7.408 2.344 11.188 3.402-1.738 8.772 6.804 23.44 7.938 25.255 7.484 12.401 15.271 24.046 24.418 36.522 2.797 3.78 5.443 7.864 8.014 11.795 10.508 16.03 21.394 32.741 42.94 34.858 3.93.378 7.786.378 11.49.378 7.333 0 14.213 0 21.243 2.647.983.378 1.966.68 2.873 1.058 5.443 2.042 9.601 3.63 14.666 4.991 1.512 4.159 2.041 8.544.53 13.157a90.893 90.893 0 0 1-2.042 5.898c-3.326 4.158-6.123 9.149-8.542 14.064-.908 1.739-3.553 7.183-5.368 7.485-1.134.227-3.024-1.587-5.367-3.78-1.512-1.437-3.327-3.176-5.595-4.99-10.659-8.545-36.967-31.38-38.857-37.203-.302-.756-1.058-1.21-1.814-.983h-.151c-.303-.075-.605 0-.908.076-.831.378-1.738.605-2.646.832a74.156 74.156 0 0 0-1.134-2.42c-.226-.454-.68-.756-1.21-.832-5.367-.529-10.885-2.873-16.63-5.293-8.24-3.478-16.708-7.107-26.233-6.124-14.062 1.436-20.639 11.04-23.738 18.828-2.192 5.368-3.175 11.72-3.1 15.198H0v3.024h63.88c.605 0 1.134-.378 1.361-.907.227-.378.227-.756.076-1.134-.227-1.437.15-13.535 6.88-22.533 4.157-5.595 9.978-8.771 17.16-9.527 8.77-.908 16.934 2.57 24.796 5.898 5.67 2.42 11.037 4.688 16.632 5.444.15.302.302.68.453.983-1.36.227-2.797.378-4.158.529-6.047.605-12.473.076-18.672-.454-6.426-.529-13.079-1.134-19.278-.378-7.635.908-13.986 5.898-15.649 12.4-1.436 5.596.832 11.04 6.275 14.897 7.484 5.368 19.202 5.52 29.634 5.67 2.646 0 5.217 0 7.56.152 3.931.151 7.938.227 12.096.302 11.415.152 23.209.303 33.339 3.479.453.15 1.058.075 1.436-.303.378-.378.53-.907.454-1.436-1.059-5.218-6.88-9.074-12.55-12.855-2.872-1.89-5.518-3.63-7.333-5.444-4.158-4.159-6.577-9.3-8.769-14.367.605-.15 1.21-.302 1.814-.529h.076c5.367 9.679 38.857 37.05 39.235 37.353 2.193 1.74 3.931 3.403 5.443 4.84 3.1 2.873 5.292 4.99 7.938 4.536 2.42-.453 4.536-2.949 7.56-9.149.454-.832.832-1.663 1.285-2.495-1.512 5.217-2.419 10.737-1.739 16.862.378 3.554 2.798 14.064 8.619 16.483 2.04.832 3.78.908 5.216.227 2.57-1.21 3.629-4.385 4.611-7.41.53-1.588 1.059-3.251 1.815-4.537l1.134-2.041c4.762-8.393 11.869-20.87 21.47-20.34.15.453.226.983.302 1.436-9.677 5.823-15.649 12.401-20.487 22.458-.076.226-8.09 17.542-3.175 22.76.831.982 2.04 1.436 3.477 1.436 1.134 0 2.495-.302 4.007-.756 8.77-3.554 18.975-20.718 23.133-34.556 1.814-6.124 3.326-14.442.151-19.13-4.763-6.956-21.092-15.879-29.408-14.669-3.628.53-6.803 2.042-9.6 4.235v-.076c1.511-4.688 1.285-9.074.075-13.157 1.436.303 3.024.605 4.687.908 12.323 2.192 20.865 9.527 29.861 17.24 7.485 6.427 15.196 13.005 25.326 16.559 8.24 2.873 17.16 4.31 25.779 5.746 3.175.53 6.274.983 9.223 1.588 10.583 1.966 24.116 3.403 35.909-3.63 9.676-5.821 18.068-16.03 17.765-27.22H474zm-331.8 1.437c1.966 1.966 4.838 3.856 7.787 5.822 3.78 2.495 8.013 5.293 10.054 8.317-9.828-2.495-20.638-2.646-31.146-2.797-4.158-.076-8.09-.076-11.945-.303-2.343-.075-4.914-.151-7.635-.151-9.904-.076-21.168-.227-27.896-5.066-4.385-3.176-6.199-7.259-5.065-11.645 1.36-5.217 6.728-9.376 13.079-10.132 2.04-.227 4.082-.302 6.199-.302 4.082 0 8.24.378 12.473.605 6.35.529 12.928 1.134 19.278.453 1.663-.227 3.402-.378 5.14-.68 2.42 5.52 4.914 11.19 9.677 15.879zm210.919-6.806c.226.757.453 1.513.604 2.269h-6.047c.15-5.671-2.268-12.174-6.88-18.677l-1.134-1.588c6.124 4.16 11.34 11.418 13.457 17.996zm-49.895-115.462c37.043-1.587 103.494-3.478 110.524-3.478h1.21c4.007 0 12.171-.075 13.608 3.78.15.757-.53 5.218-14.515 30.398-8.467 15.198-18.597 32.135-25.25 43.402-3.704 6.049-5.443 8.998-6.2 10.51-7.861.53-27.895 1.966-50.499 3.478-1.058-1.436-2.116-2.873-3.024-4.385l51.558-3.403c.53-.076.983-.378 1.21-.756 1.436-2.344 35.758-58.147 37.648-68.808.453-2.722.075-4.764-1.134-6.276-2.193-2.722-6.426-2.874-11.34-3.025-.907 0-1.739 0-2.646-.075-4.46-.227-64.334 2.42-102.284 4.158.454-1.663.832-3.554 1.134-5.52zm21.999 83.024a47.857 47.857 0 0 0 3.326 5.293c-38.555 2.647-83.006 5.671-87.089 5.974l-57.681-19.509c-1.058-1.814-2.117-3.554-3.553-5.141.302.378.831.529 1.285.453.076-.075.151-.075.227-.075.075-.076.227-.076.378-.076 2.57 1.134 9.072 3.478 25.854 9.527 3.327 1.21 22.831 8.167 26.384 9.376.378.227.832.227 1.21.152.378-.076.604-.227.831-.53l.227-.453c5.67-12.628 25.628-62.155 30.315-74.404.378-.907.68-1.815 1.058-2.57 5.14-.379 30.844-2.42 31.978-2.496 37.724-1.664 99.714-4.461 104.099-4.235.907 0 1.814.076 2.721.076 4.007.151 7.787.303 9.072 1.89.605.832.756 2.042.454 3.857-1.437 8.015-24.494 46.956-36.817 67.069l-53.07 3.63c-.529 0-.982.302-1.209.756a1.602 1.602 0 0 0 0 1.436zm-10.281 9.3c-2.57.454-5.217 1.06-7.787 1.589-2.948.604-5.745 1.21-8.391 1.663-3.1.53-6.2 1.059-9.223 1.588-9.072 1.512-17.54 3.024-26.384 3.856-21.319 2.042-36.968.378-50.65-5.444-1.588-.68-3.176-1.285-4.915-1.966-5.82-2.344-11.869-4.688-16.329-8.62-.907-.907-1.739-1.89-2.797-2.722-.907-1.059-1.663-2.193-2.42-3.403l54.583 18.45c.227.076.378.076.604.076 0 0 37.044-2.571 73.709-5.066zm-134.867-23.137v.076a29.098 29.098 0 0 0-1.437-1.74c.151-1.512.605-3.024 1.361-4.612 2.646 1.21 5.216 1.89 7.484 1.966.378 0 .832-.151 1.134-.454.303-.302.378-.68.378-1.134-.302-3.327-1.739-6.2-3.326-8.922 1.587-1.815 3.25-3.63 4.99-5.293 1.738.15 3.477.302 5.14.453 6.426.605 13.079 1.21 19.429.378 4.914-.68 9.903-2.57 14.741-4.385 5.746-2.193 11.642-4.386 17.161-4.461l-7.938 23.44c-2.57.075-9.45.302-28.349 1.058-17.841.757-25.023 1.059-28.047 1.361-.151-.15-.227-.15-.378-.226-.529-.152-1.134 0-1.587.378l-.227.227c-.076 0-.151.075-.227.15-.454.454-.605 1.135-.302 1.74zm-34.624-86.502c-3.705-.756-7.258-1.512-8.316-1.966-5.14-2.193-10.357-5.52-15.422-8.696-5.065-3.25-10.281-6.578-15.649-8.922-1.36-.605-2.948-1.21-4.611-1.89-5.67-2.193-13.306-5.218-13.608-8.393-.151-1.437 1.436-3.252 4.687-5.218 4.007-2.42 7.862-5.217 11.567-7.94 1.663-1.209 3.326-2.419 5.065-3.629 1.436 2.118 2.419 4.008 2.948 5.671.076.454.454.832.832.983.453.152.907.152 1.285-.075.604-.303 11.188-5.974 20.487-12.174.302 14.442 1.663 45.67 1.663 46.049 0 .453.302.907.68 1.21 3.024 1.965 8.694 3.326 13.608 4.536 2.041.53 4.007.983 5.443 1.437l.302.076c4.688 1.436 10.509 3.327 14.59 6.502 2.042 1.588 3.478 4.008 4.99 6.579 1.059 1.739 2.117 3.554 3.402 5.141l.151.227c10.206 12.25 11.34 17.77 10.509 20.265-.454 1.21-1.437 2.041-3.176 2.57-4.762-2.722-6.955-.982-8.92 1.286-.832.907-1.588 1.74-2.722 1.966-.831.151-1.663-.454-2.872-1.361-.983-.756-1.966-1.512-3.175-1.664-.454-.075-.832-.075-1.21-.075-1.436 0-2.42.378-3.1.53-.756.302-1.512.604-2.646.68-5.82.605-14.59-1.89-18.219-6.428-1.89-2.268-2.343-4.99-1.36-7.939 1.285-4.007 7.71-7.334 13.38-10.283 6.275-3.252 11.643-6.05 11.794-10.133.15-3.63-6.502-5.595-22.377-8.922zm-34.095-48.317c3.024-2.042 6.199-4.008 9.374-5.596.53-.302 1.134-.604 1.739-.907 3.477-1.815 8.391-4.31 12.247-4.612-.151 1.134-.303 2.344-.303 3.554-7.56 5.217-16.782 10.359-20.335 12.325-.605-1.437-1.588-3.025-2.722-4.764zm29.332-8.318c1.739 2.118 3.175 5.142 4.46 7.789.53 1.134 1.059 2.268 1.588 3.175 14.137 26.011 27.896 48.696 54.28 63.365 8.39 4.688 16.706 8.166 24.947 10.359-8.543 10.434-18.9 19.81-26.006 25.935-.53.454-1.058.907-1.663 1.437-1.815 1.512-3.856 3.327-5.972 5.217-10.735.832-21.017-1.21-33.415-6.503-5.216-2.268-7.71-4.385-11.34-8.393-.68-.756-1.511-1.815-2.343-3.024 4.914 3.251 11.869 4.688 16.934 4.31 1.587-.152 2.646-.605 3.477-.908.983-.378 1.664-.605 3.1-.453.378.075 1.058.604 1.663 1.058 1.285.983 3.024 2.344 5.292 1.89 2.192-.378 3.402-1.814 4.385-2.948 1.512-1.664 2.192-2.496 5.67-.378.377.15.755.226 1.133.15 3.1-.755 5.066-2.343 5.897-4.687 2.117-6.352-5.367-16.257-11.113-23.138l-.151-.227c-1.134-1.361-2.041-3.024-3.1-4.764-1.587-2.646-3.25-5.444-5.745-7.41-4.536-3.554-10.66-5.444-15.573-7.032l-.303-.075c-1.512-.53-3.553-.983-5.67-1.513-4.082-.983-9.147-2.192-12.02-3.705-.15-5.368-1.436-35.084-1.587-47.183 1.134-.756 2.192-1.587 3.175-2.344zm-3.024-1.587c.076-.303.076-.53.151-.832.227.151.378.227.605.302-.302.151-.53.378-.756.53zm1.058-3.706c.605-1.512 1.512-2.873 2.722-4.234 1.89-1.966 3.024-2.268 3.402-2.193.151.076.302.378.302.454.378 1.134-.226 3.327-1.89 4.99-.68.757-1.436 1.437-2.343 2.193-.68-.529-1.437-.907-2.193-1.21zm125.72 90.964c-.151.302-.227.529-.302.756-4.536 11.871-23.436 58.903-29.71 73.118-6.35-2.193-32.432-11.418-44.981-16.106 15.724-.756 49.668-2.041 50.575-1.966.227 0 .53-.075.756-.15.378-.228.605-.53.756-.908l8.996-26.39c.151-.377.076-.907-.151-1.285-.227-.378-.68-.68-1.134-.68-6.804-.605-13.759 2.041-20.487 4.537-4.687 1.739-9.526 3.553-14.061 4.158-6.048.832-12.247.227-18.749-.378l-2.268-.227c17.993-1.588 50.5-4.763 61.688-28.582.68-1.36 1.286-2.948 1.966-4.612 2.419-.302 4.763-.756 7.106-1.285zm-5.897-1.89c1.512-4.084 2.949-8.696 4.234-12.855 0 4.764.53 8.847 1.814 11.644-1.965.53-4.006.908-6.048 1.21zm-5.82 6.502c-9.677 20.643-37.497 24.726-55.338 26.465a53.184 53.184 0 0 0 2.872-2.42c.605-.53 1.134-.983 1.663-1.437 7.182-6.275 17.766-15.803 26.46-26.464.227-.378.529-.68.756-.983 8.391 1.966 16.707 2.57 24.872 1.89-.454 1.059-.908 2.042-1.286 2.949zm-68.946 34.933c-.53-.831-1.134-1.663-1.663-2.57 1.512-.076 3.024 0 4.536 0-.908.983-1.815 1.89-2.646 2.873-.076-.076-.151-.227-.227-.303zm1.89 10.36c-1.285-.303-2.797-.757-4.31-1.437a30.482 30.482 0 0 1 2.344-3.403c.832 1.588 1.588 3.176 1.966 4.84zm-40.294-31.078c3.856 4.235 6.653 6.654 12.323 9.074 7.56 3.251 14.514 5.293 21.167 6.276-.302.151-.53.302-.68.605a1.602 1.602 0 0 0 0 1.436c.907 1.74 1.965 3.403 3.024 4.991.302.378.529.756.756 1.134-1.286 1.588-2.42 3.176-3.402 4.84-8.24-4.31-18.446-12.628-26.762-20.567-7.484-7.184-13.91-15.577-19.882-24.046 1.21.681 2.419 1.286 3.704 1.74 1.36 2.344 6.577 11.04 9.752 14.517zm35.834 36.446c-.227.076-.378.151-.53.227.076-.076.303-.227.53-.227zm88.827-59.886c3.78-5.898 8.467-6.125 18.824-6.578.832-.076 1.739-.076 2.646-.151 2.57-.076 5.443-.227 8.543-.379-.303 2.042-.756 3.857-1.361 5.52-15.12.68-26.081 1.21-27.593 1.286-.151 0-.227 0-.378.075l-.68.227zm30.542-10.208a931.01 931.01 0 0 0-9.147.454c-.908.076-1.815.151-2.646.151-11.264.53-17.085.832-21.773 8.998-1.814-4.612-1.36-13.459-.075-22.91.529-.53 1.058-.908 1.739-1.437 6.274 4.158 18.521 2.041 27.744.378 1.512-.227 2.873-.454 4.158-.68h.227c.302 0 .68-.152.907-.454-.151 5.595-.53 10.888-1.134 15.5zm-28.5-16.257c6.728-2.42 16.48-2.117 23.51-.907-7.408 1.285-17.765 3.1-23.51.907zm-18.144-97.39c9.072 2.42 20.638 7.259 27.669 11.04 6.955 3.705 8.618 10.132 10.508 17.542.68 2.722 1.36 5.595 2.42 8.318 4.308 11.568 7.181 36.748 7.03 58.146-.076-.075-.151-.075-.227-.15-.151-.076-.302-.152-.454-.152-7.333-2.268-22.528-3.705-31.978.68-.453-.529-.756-1.134-.982-1.89a218.028 218.028 0 0 1 2.57-12.627c1.512-2.571 4.007-5.596 6.577-8.772 6.426-7.939 13.759-16.937 11.49-24.271-.83-2.798-2.191-4.235-4.006-4.235-1.89 0-4.687 1.437-9.374 12.779-2.646 6.427-4.763 13.005-5.14 14.442 0 .151-.983 3.554-2.193 8.771-.454.756-.756 1.512-1.058 2.193-1.89 4.84-2.57 8.771-1.815 11.871-.302 1.74-.604 3.554-.831 5.293-.227.152-.303.378-.378.605-.076.151-4.385 16.333-8.543 27.448-7.938.756-15.951.302-24.116-1.437 5.141-7.107 8.845-14.744 12.398-22.155.605-1.285 1.21-2.57 1.89-3.856 2.42-4.84 5.292-9.754 8.09-14.442 4.006-6.805 8.164-13.913 11.188-21.247 4.385-10.662 8.845-23.063 8.845-34.631 0-14.972-4.914-20.114-15.876-25.86-1.663-.832-2.948-1.74-4.006-2.722.15-.227.226-.454.302-.68zm18.673 72.892c.15-.454.226-.908.378-1.286.378-1.285 2.494-7.94 5.065-14.14 4.46-10.812 6.577-10.888 6.577-10.888s.529.303 1.134 2.117c1.739 5.747-4.99 14.14-10.962 21.475-.756.907-1.512 1.814-2.192 2.722zM189.07 55.389c.378-4.158 2.721-6.654 4.687-6.88 1.965-.227 3.78 1.436 4.914 4.536v.076c.302.756 1.21 1.21 1.965.907.756-.302 1.21-1.21.907-1.966-.075-.075-.075-.075-.075-.15-2.722-7.411-4.763-28.13 1.89-35.161 2.343-2.495 5.519-3.025 9.828-1.664.68.227 1.512-.075 1.814-.756 3.402-6.88 9.677-10.813 17.614-11.266 10.66-.53 21.924 5.141 27.442 13.913 2.042 3.327 3.932 6.805 5.67 10.207 2.57 4.764 5.14 9.755 8.618 14.443.53.756 1.134 1.436 1.664 2.117 2.494 2.949 3.704 4.461 1.436 8.393-1.814 3.1-7.106 4.688-9.979 3.856-.832-.227-1.663.227-1.89.983-.151.454-.227.832-.378 1.286a1.644 1.644 0 0 0-.605-1.513 1.475 1.475 0 0 0-1.738 0c-2.798 1.966-6.35 2.193-10.66.605-10.432-3.78-21.999-17.013-24.191-23.818 0-.151-.076-.227-.076-.378a1.233 1.233 0 0 0-.831-.983c-.454-.227-1.059-.227-1.512.076-.227.15-.454.302-.53.529-4.46 4.159-5.594 8.922-6.652 13.535-.68 2.873-1.36 5.595-2.797 8.166-1.512-.907-2.873-1.059-3.856-.907-3.175.453-5.67 3.327-7.106 5.52-.68-.53-1.512-1.21-2.117-1.74.076-.605 0-1.21-.756-1.588-1.285-.756-2.04.454-2.419 1.135a1.22 1.22 0 0 0-.227.68A174.93 174.93 0 0 0 193.91 69c-5.216-3.78-5.065-11.115-4.838-13.61zm10.054 17.316c.076-.151.076-.227.076-.378v-.605a1.22 1.22 0 0 0-.227-.68 1.68 1.68 0 0 0-.983-.606h-.453c-.378-.075-.756-.15-1.134-.302a129.805 129.805 0 0 1 4.536-10.208c1.21.983 2.646 2.193 3.1 2.42.302.227.755.227 1.133.151.378-.076.68-.302.907-.68 1.664-3.1 3.931-5.218 5.746-5.445.907-.075 1.814.303 2.721 1.21.303.303.756.454 1.21.454.454 0 .832-.227 1.134-.605 2.419-3.403 3.326-7.108 4.158-10.662.907-3.856 1.814-7.485 4.536-10.737 3.553 7.788 14.439 19.962 25.325 23.894 3.629 1.286 6.955 1.588 9.828.756-4.914 12.552-21.621 52.779-28.727 56.56-7.182 3.856-13.608 3.629-19.202-.53-11.718-8.847-15.952-32.136-13.684-44.007zm-.302-1.664c.076.076.227.227.227.378-.076-.15-.151-.302-.227-.378zm-16.405 21.55c4.687-2.42 8.845-7.41 12.02-16.181l1.134-3.176c.151.076.378.151.605.227-2.041 13.157 2.57 36.521 15.044 45.897 6.501 4.915 14.288 5.142 22.453.832 9.45-4.99 29.332-55.878 31.373-61.322-.756 2.57-1.36 5.066-1.89 7.41-1.588 6.578-3.1 12.778-7.484 19.584-.378.529-.756 1.134-1.134 1.663-3.705 5.52-7.484 11.267-6.048 16.71.302 1.21.831 2.42 1.663 3.479-2.721 6.049-8.089 17.92-11.113 21.323-7.938 9.074-17.765 17.845-29.937 14.82-10.357-2.646-16.026-10.586-21.772-19.962-3.629-5.822-11.718-26.01-4.914-31.304zm-4.838 1.89c-3.175 9.377 4.158 26.012 7.182 31.002 6.123 9.981 12.095 18.45 23.586 21.323 13.76 3.478 24.343-5.973 32.961-15.727 3.175-3.479 8.24-14.518 11.113-20.945 1.058.907 2.344 1.663 3.856 2.495 10.583 5.52 14.288 9.83 14.288 23.138 0 11.115-4.385 23.137-8.619 33.496-2.872 7.184-7.03 14.14-10.961 20.87-2.797 4.763-5.67 9.678-8.165 14.593-.605 1.286-1.285 2.571-1.89 3.856-3.78 7.637-7.635 15.501-13.003 22.685-8.391-2.118-16.858-5.596-25.476-10.36-25.628-14.29-39.236-36.597-53.07-62.154a56.12 56.12 0 0 1-1.512-3.024c-1.285-2.798-2.873-5.974-4.838-8.394.831-.68 1.663-1.436 2.268-2.192 2.267-2.269 3.401-5.52 2.721-7.94-.378-1.36-1.21-2.268-2.42-2.57-1.813-.454-4.006.529-6.35 3.024-1.662 1.815-2.948 3.63-3.704 5.747-4.762 0-10.432 2.873-14.439 4.914-.605.303-1.134.605-1.663.832-3.478 1.74-6.728 3.78-9.903 5.898-5.897-7.713-15.422-16.786-23.436-22.533 13.608-11.266 30.24-24.725 36.136-28.128 9.677-5.595 16.858-8.696 27.215-9.074 2.798-.15 5.821 0 9.072.152 6.577.302 13.305.604 19.05-.983zM78.849 128.13c8.845-9.225 42.335-37.883 66.602-38.79 3.93-.076 8.391 1.134 13.154 2.495l2.495.68c-.832 0-1.588 0-2.42-.075-3.25-.151-6.35-.302-9.298-.151-10.886.453-18.749 3.78-28.576 9.527-6.2 3.63-23.436 17.542-37.27 29.036-1.663-1.135-3.25-2.042-4.687-2.722zm-6.275 83.25c-3.78-1.058-7.71-2.117-11.264-3.402-7.787-2.723-16.102-7.94-21.697-11.796-4.006-2.798-6.199-5.974-6.501-9.452-.454-4.915 2.646-10.661 9.147-17.164 5.821-5.822 11.945-10.813 18.522-16.03 2.495-1.966 4.99-4.008 7.484-6.05 1.21-.982 2.873-2.419 4.914-4.082a1261.48 1261.48 0 0 1 10.508-8.772c7.787 5.445 17.539 14.594 23.36 22.23-1.739 1.21-3.402 2.42-5.065 3.63-3.704 2.647-7.484 5.444-11.34 7.788-4.309 2.647-6.35 5.369-6.123 8.091.453 5.066 8.467 8.166 15.497 10.964a70.718 70.718 0 0 1 4.536 1.815c5.14 2.268 10.281 5.52 15.271 8.695 5.14 3.252 10.508 6.579 15.876 8.923 1.36.605 4.687 1.285 8.92 2.193 5.594 1.134 18.748 3.931 19.958 5.973-.227 2.268-5.519 5.066-10.206 7.486-6.501 3.402-13.23 6.88-14.893 12.022-.453 1.513-.68 2.95-.604 4.386a11.98 11.98 0 0 1-.907-1.512c-.152-.378-.454-.605-.832-.757-4.612-1.512-8.618-5.141-12.927-8.998-3.024-2.722-6.124-5.444-9.526-7.637-8.164-5.066-21.772-11.342-33.187-12.098-.454-.075-.832-.075-1.21-.075-3.629 0-6.199 1.21-7.71 3.63zm45.964 15.274c-10.81-4.083-21.924-8.166-33.339-11.796a277.79 277.79 0 0 0-9.374-2.646c1.058-1.059 2.873-1.512 5.443-1.361 10.13.756 23.284 6.427 31.751 11.72 1.89 1.134 3.78 2.57 5.519 4.083zm72.876 97.315c-.907-.303-1.89-.68-2.872-1.059-7.56-2.873-15.044-2.873-22.302-2.873-3.704 0-7.484 0-11.188-.378-20.11-1.966-30.088-17.316-40.672-33.497-2.57-4.008-5.292-8.09-8.09-11.947-9.146-12.4-16.857-23.97-24.266-36.294-3.856-6.428-8.618-17.165-7.56-22.911 3.25.831 6.653 1.739 9.98 2.722 12.02 3.78 23.812 8.242 35.228 12.476 1.663.605 3.402 1.285 5.065 1.89 7.333 10.889 15.346 22.23 25.174 31.607 5.594 5.293 17.236 15.803 27.442 21.096-.907 2.041-1.512 4.083-1.587 6.049a1.843 1.843 0 0 0 0 .907c.075.378.378.68.68.908 1.134 1.21 2.117 2.57 3.024 4.007-.454.076-.832.303-1.059.68-.378.53-.302 1.286.152 1.816 1.965 2.192 4.082 4.385 6.35 6.73.454.453.983.982 1.436 1.511.53.68 1.134 1.361 1.739 1.966.302.303.68.68 1.058.983 2.042 2.193 4.083 4.386 6.048 6.654 2.949 3.403 5.973 7.108 8.165 11.116-3.931-1.135-7.56-2.496-11.945-4.16zm27.14 20.642c7.182-1.058 22.302 7.335 26.46 13.384 1.965 2.873 1.738 8.922-.53 16.56-4.384 14.517-14.363 29.791-21.394 32.664-1.436.605-3.326 1.135-4.158.227-2.268-2.42.68-13.081 3.704-19.357 4.687-9.754 10.508-16.03 20.034-21.625.453-.227.756-.757.756-1.286 0-1.436-.378-3.176-.983-4.385-.227-.454-.605-.757-1.134-.832-.68-.076-1.36-.151-1.965-.151-10.962.075-18.446 13.08-23.285 21.776a24.726 24.726 0 0 1-1.134 2.042c-.907 1.588-1.436 3.402-2.04 5.142-.832 2.42-1.664 4.99-3.025 5.595-.68.378-1.587.302-2.797-.227-3.855-1.588-6.35-9.905-6.804-13.988-1.058-9.452 1.966-17.316 5.141-25.709.302-.68.53-1.361.832-2.117 3.401-4.083 7.408-7.032 12.322-7.713zm119.218 23.97c-10.886 6.427-23.813 5.066-33.792 3.176a776.726 776.726 0 0 0-9.299-1.588c-8.467-1.437-17.236-2.874-25.25-5.671-9.6-3.327-17.085-9.83-24.342-16.03-8.92-7.637-18.144-15.577-31.298-17.92-2.419-.455-4.535-.908-6.501-1.362-2.117-4.612-5.368-8.922-8.694-12.854 2.646 1.285 5.368 2.344 7.938 3.327 1.739.68 3.326 1.285 4.838 1.966 14.137 6.049 30.24 7.788 52.163 5.67 8.92-.907 17.463-2.343 26.535-3.931 3.1-.53 6.123-1.059 9.223-1.588 2.721-.454 5.518-.983 8.542-1.664 8.014-1.739 16.33-3.553 23.965-2.495a13.95 13.95 0 0 1 1.739.303c1.739 2.041 3.402 4.083 4.838 6.124 4.612 6.503 6.804 13.006 6.2 18.223-.077.454.075.908.377 1.21.302.378.68.53 1.134.53h8.013c.303 9.98-7.408 19.28-16.329 24.574z" fill-rule="nonzero"/>
</svg>
