<svg width="739" height="235" viewBox="0 0 739 235" xmlns="http://www.w3.org/2000/svg">
    <path d="M470.003 234.993H325.73a1.307 1.307 0 0 1-1.303-1.303v-6.245c0-.717.587-1.303 1.303-1.303H468.7v-41.483c0-.717.58-1.297 1.296-1.304l4.164-.026V153.33c0-9.334-9.442-11.022-10.484-11.179H331.19c-12.366 0-13.448 10.397-13.513 11.225v74.85c0 .717-.587 1.304-1.303 1.304h-6.243c-.703 0-1.283-.56-1.303-1.264-.065-2.152-.234-5.698-.45-10.189-.403-8.447-.964-20.063-1.29-32.07-5.922-.776-13.083.365-20.061 1.467-4.34.69-8.438 1.336-12.107 1.499-13.207.593-26.669-.782-39.68-2.112l-2.444-.248a222.18 222.18 0 0 0-4.138-.371c-10.308-.867-21.997-1.852-28.571-11.114-6.555-9.23-5.337-24.972-.73-36.197-8.25 12.542-11.253 26.132-7.278 35.226 2.54 5.807 7.773 8.943 15.13 9.073.71.013 1.276.593 1.276 1.304v.026a1.312 1.312 0 0 1-1.329 1.277l-24.037-.43H87.051c-.482 0-.919-.26-1.147-.684l-56.915-105.8-5.65 2.353a1.295 1.295 0 0 1-1.798-1.225l.241-12.092-6.379 6.382L75.76 183.485a1.303 1.303 0 0 1-1.14 1.93H1.303A1.307 1.307 0 0 1 0 184.11c0-.717.586-1.304 1.303-1.304h71.1L12.641 74.74a1.304 1.304 0 0 1 .221-1.55l9.357-9.361a1.303 1.303 0 0 1 2.228.945l-.26 13.33 3.57-1.486-2.639-4.902a1.303 1.303 0 0 1 .456-1.72l83.396-52.343-1.251-3.136a1.363 1.363 0 0 1-.078-.684c.052-.32 1.303-7.907 6.704-11.72 2.711-1.91 5.95-2.53 9.637-1.838 7.083 1.33 8.81 5.364 10.334 8.93 1.401 3.285 2.613 6.12 7.702 7.476 6.36 1.695 13.481 3.175 18.596 4.16l3.297-6.604a1.301 1.301 0 0 1 1.648-.626l7.272 2.914c9.09-4.198 17.032-4.596 23.62-1.18 12.021 6.225 15.019 22.743 15.136 23.447a1.305 1.305 0 0 1-1.284 1.525H161.95a1.307 1.307 0 0 1-1.303-1.304c0-5.495 3.062-11.726 4.684-14.64-.853-.15-1.967-.352-3.277-.6l-2.841 5.678a1.29 1.29 0 0 1-1.4.697l-38.216-7.02a1.297 1.297 0 0 1-.906-.652l-3.231-5.82-3.278 2.053 2.62 6.544c.234.587.019 1.252-.515 1.584l-76.41 48.373c-.066.039-.131.071-.196.104l-6.268 2.607 56.433 104.887h95.313l13.35.235c-3.01-1.805-5.33-4.445-6.815-7.841-5.265-12.027.502-31.021 14.009-46.19 1.485-1.668 2.88-3.148 4.222-4.445a306.504 306.504 0 0 1 3.838-5.006 270.565 270.565 0 0 0 3.544-4.615c3.01-4.022 5.317-8.585 7.559-12.998 1.844-3.644 3.753-7.418 6.027-10.807 7.506-11.186 21.508-14.856 33.869-18.095 5.14-1.35 9.995-2.62 14.133-4.329.221-.09.462-.117.684-.084-1.551-3.683-1.662-8.585.723-10.684a3.95 3.95 0 0 1 .834-.567c-6.197-6.844-9.005-20.78-6.92-28.446 3.805-13.995 22.193-18.128 33.42-16.511 4.763.684 20.361 5.13 25.841 12.665 1.597 2.197 2.209 4.485 1.812 6.792-.235 1.376-.743 2.536-1.466 3.514 5.597 10.233 6.222 23.596 6.795 36.014l.105 2.274c.026.502.045.991.058 1.474.913-.183 1.988-.3 3.245-.372 5.265-.293 12.302 1.48 16.941 3.37 11.879 4.83 14.166 14.66 16.583 25.063.41 1.754.827 3.566 1.297 5.345.495 1.884 1.185 3.657 1.857 5.371 1.446 3.716 2.697 6.923 1.348 9.791-.527 1.121-1.42 2.08-2.71 2.9.293.952.593 1.878.899 2.745 2.072 2.157 3.505 4.954 4.007 7.88a1.303 1.303 0 0 1-2.248 1.102c-1.57-1.72-2.854-4.335-4.02-7.542-4.346 2.028-9.233 3.325-13.963 4.576-2.424.646-4.711 1.252-6.894 1.943a1.323 1.323 0 0 1-1.173-.196 1.272 1.272 0 0 1-.521-1.069c.117-7.027 8.646-8.382 14.869-9.38 1.863-.3 3.623-.58 4.75-.951.417-.137.814-.28 1.173-.43-.671-2.321-1.33-4.811-2.007-7.405-3.356-12.718-7.155-27.13-15.403-31.517-3.16-1.681-6.757-1.78-10.993-.3-5.786 2.015-7.186 8.35-8.672 15.058-.97 4.387-1.974 8.93-4.36 12.176-2.742 3.742-6.15 6.414-9.454 8.995-4.137 3.24-8.053 6.304-10.705 11.323-1.987 3.768-2.867 13.597-3.128 25.565 5.943 2.705 5.07 9.432 4.288 15.455-.495 3.794-1.004 7.711-.17 11.023.118.475-.039.977-.404 1.303a1.31 1.31 0 0 1-1.342.228c-.697-.28-1.42-.515-2.176-.704.332 12.092.886 23.616 1.264 31.451.176 3.716.326 6.786.41 8.97h3.675v-73.671c.007-.137 1.03-13.708 16.12-13.708h132.577c.059 0 .117 0 .17.013.13.02 12.829 1.851 12.829 13.773v29.978l8.614-.052a4.662 4.662 0 0 1-.456-2.21c.286-7.698 18.478-19.626 22.069-20.923 4.691-1.689 8.692-1.421 11.884.801.32.222.626.463.926.724 1.511-.104 2.951.098 4.476.313 1.955.273 4.17.586 7.09.352a1.298 1.298 0 0 1 1.374.99c.065.274.156.561.267.854.404-.73.886-1.368 1.466-1.864 2.124-1.818 6.21-2.086 10.165-2.34 2.176-.143 4.235-.274 5.512-.658 6.314-1.897 10.484-3.155 17.182-3.963 1.883-.229 3.968-.672 6.177-1.16a7.21 7.21 0 0 1 1.18-1.18c-5.083-.098-6.392-.6-11.488-6.408-4.652-5.293-8.679-10.208-11.24-15.833-1.654 5.104-1.492 8.128-1.237 12.847.045.828.09 1.708.13 2.66.43 10.064-1.017 10.957-9.324 11.453l-.482.026c-1.903.117-4.653.137-7.839.163-11.227.098-28.194.24-37.016 4.341-.391.183-.847.156-1.218-.065a1.293 1.293 0 0 1-.626-1.05c-.02-.319-1.629-31.562-4.092-56.938h-.124c-3.016 0-7.786-2.314-11.787-5.195-4.776-3.441-19.586-15.937-13.455-34.593a8.066 8.066 0 0 0-1.238-.189c-4.196 4.583-10.138 6.695-15.95 8.761-6.432 2.288-13.078 4.648-18.03 10.234-12.158 13.701-9.513 37.839-6.854 51.006a1.298 1.298 0 0 1-.886 1.5l-.137.038c-4.288 1.356-10.152 3.214-14.556 1.428a1.307 1.307 0 0 1-.815-1.16c-.182-5.117 1.61-11.082 3.343-16.844.716-2.379 1.388-4.634 1.883-6.7 2.547-10.639 5.147-20.97 9.005-30.422 4.17-10.22 11.487-13.65 21.182-15.65 1.623-.333 3.773-.998 6.054-1.695 4.658-1.428 10.145-3.116 14.601-3.136 1.401-1.773 2.509-3.924 3.258-6.616-4.105-2.32-6.17-7.561-6.744-11.941-.71-5.437.632-10.293 3.421-12.366 1.101-.815 2.848-1.545 5.324-.964.221-11.12 7.043-20.292 18.557-24.757 13.461-5.221 28.65-1.904 36.937 8.07 7.161 8.617 10.576 26.249 7.311 37.74-1.524 5.372-3.922 8.788-6.815 10.88.026.893.15 1.656.423 2.203 1.127 2.262 6.366 3.546 10.197 4.491 1.453.359 2.828.698 3.91 1.056 12.23 4.094 25.783 9.472 31.92 21.563 6.275 12.359 11.846 17.978 23.08 27.853 4.867 4.283 8.796 8.526 13.2 13.578 1.2 1.382 2.822 2.764 4.536 4.224 2.684 2.294 5.466 4.667 6.965 7.346 1.466 2.627 2.26 6.33 3.036 9.914.437 2.015.84 3.924 1.342 5.502l.209.645c1.531 4.798 3.844 12.053 2.118 17-.437 1.258-1.16 2.373-2.098 3.364a78.876 78.876 0 0 1 9.806 2.88h105.334c.717 0 1.303.587 1.303 1.304 0 .717-.586 1.304-1.303 1.304H632.135c-.157 0-.307-.026-.45-.078-3.935-1.454-7.806-2.497-11.715-3.292-6.523 4.217-17.866 5.515-26.076 6.46-1.975.228-3.675.423-5.03.625l-.15.027c-12.276 1.877-29.087 4.439-40.985-.098a1.315 1.315 0 0 1-.834-1.07 1.316 1.316 0 0 1 .567-1.231c7.207-4.856 17.919-11.446 27.68-12.561 4.945-.567 10.249.398 15.376 1.323 2.828.515 5.5.997 8.067 1.226l.586.052c7.161.645 13.742 1.238 20.225 2.47 1.336-1.017 2.313-2.197 2.796-3.565 1.44-4.126-.802-11.147-2.144-15.345l-.209-.651c-.54-1.695-.957-3.664-1.407-5.737-.73-3.396-1.486-6.903-2.763-9.19-1.27-2.275-3.864-4.492-6.379-6.636-1.713-1.46-3.486-2.973-4.808-4.498-4.333-4.973-8.197-9.145-12.96-13.33-11.487-10.103-17.202-15.866-23.678-28.629-5.689-11.211-18.147-16.159-30.423-20.265-.984-.326-2.306-.652-3.707-.997-4.802-1.18-10.243-2.517-11.904-5.86-.28-.568-.47-1.22-.58-1.93-.19.085-.378.17-.574.241-1.557 11.264-10.718 22.482-19.495 28.864-5.61 4.074-10.875 5.475-15.664 4.152-5.76-1.584-10.673-7.053-14.608-16.244-3.239-7.561-3.538-18.42-1.342-29.196a1.339 1.339 0 0 1-.463-.274c-2.202-2.007-3.115-4.836-2.698-8.402.34-2.946 1.584-6.231 3.363-9.575a1.312 1.312 0 0 1-1.232.091c-1.87-.84-3.408-.828-4.568.033-2.006 1.492-2.97 5.488-2.39 9.934.631 4.843 2.899 8.786 5.837 10.214.098.013.196.033.294.065.306.11.547.32.697.587.208.306.286.69.182 1.069-.039.137-.098.267-.17.384-.683 2.712-1.693 4.96-2.964 6.864.573.13 1.114.307 1.616.535.625.28.925 1.004.684 1.642-5.447 14.55 3.18 25.161 8.803 30.193 6.405 5.73 12.895 7.881 14.035 7.301.371-.3.86-.365 1.31-.183.443.183.73.607.781 1.083 2.203 22.168 3.754 49.435 4.151 56.703 9.624-3.624 25.574-3.761 36.339-3.853 3.147-.026 5.864-.052 7.701-.163l.482-.026c3.31-.195 5.31-.319 6.1-1.192.872-.965.944-3.605.775-7.549-.04-.938-.085-1.812-.13-2.633-.288-5.332-.47-8.852 1.94-15.468.138-.365.3-.763.483-1.193-1.003-3.155-1.55-6.577-1.518-10.423 0-.124.384-12.385 4.776-13.702 1.622-.488 3.251.47 4.854 2.849 3.01 4.465-.892 12.378-4.02 18.74-.482.978-.932 1.884-1.31 2.699 2.235 6.316 6.51 11.583 11.82 17.626 4.809 5.468 5.239 5.475 10.562 5.534 1.01.013 2.157.026 3.525.071.202.007.41.026.632.046 4.157-1.245 9.61-1.812 15.22-2.197l1.063-.071c.384-.02.743.11 1.01.371.267.267.404.632.384 1.004-.104 1.734-.762 3.077-1.948 3.976-.137.104-.28.202-.423.293 2.652 1.265 5.069 3.35 7.07 6.59a1.303 1.303 0 0 1-.268 1.682c-7.578 6.414-27.894-4.237-28.754-4.693a1.304 1.304 0 0 1-.495-.463c-1.779.385-3.473.717-5.076.913-6.477.782-10.562 2.014-16.746 3.872-1.563.469-3.766.612-6.092.762-3.193.209-7.167.463-8.633 1.721-.704.6-1.219 1.662-1.63 2.953.796 1.343 1.747 2.77 2.679 4.172 3.193 4.784 6.49 9.732 5.278 13.545-.541 1.688-1.89 2.953-4.008 3.761-3.811 1.454-6.49 1.401-8.17-.156-1.942-1.8-2.125-5.267-.56-10.619.384-1.323.657-3.057.944-4.889.293-1.864.586-3.754 1.03-5.468-.49-.9-.906-1.767-1.2-2.595-2.69.118-4.762-.17-6.613-.43a47.588 47.588 0 0 0-1.772-.228c3.336 4.915 5.076 13.22 5.18 24.796a1.304 1.304 0 0 1-1.766 1.232c-2.645-1.01-7.252-.815-11.715-.626-6.347.267-12.895.547-16.322-2.288a10.02 10.02 0 0 1-1.082-.013c-1.349-.085-5.07-.326-6.496-2.425a1.313 1.313 0 0 1-1.212.854l-11.963.078v41.529c0 .717-.586 1.303-1.303 1.303h-4.157v4.941c0 .717-.587 1.304-1.303 1.304l.026-.007zm-142.97-2.607H468.7v-3.637H327.033v3.637zm144.273-6.244h2.854v-40.206l-2.854.02v40.192-.006zm79.877-38.283c11.096 3.116 26.037.835 37.172-.867l.15-.026c1.401-.215 3.128-.41 5.121-.639 6.516-.75 15.951-1.825 22.258-4.608-5.401-.867-10.953-1.369-16.908-1.903l-.586-.053c-2.685-.24-5.539-.756-8.302-1.258-4.939-.893-10.047-1.818-14.621-1.297-8.255.945-17.443 6.186-24.29 10.651h.006zm-31.993-.912c2.014 0 3.884.104 5.5.436-.326-13.617-3.063-20.024-5.8-23.003-1.361.28-2.795.945-4.6 2.301-5.219 3.905-8.483 6.114-14.022 8.878-4.333 2.164-8.58 6.134-8.255 7.73.117.574 1.388 1.318 4.6 1.526.26.02.521.02.782.007 2.241-2.334 5.147-2.953 8.066-3.35 3.193-1.91 6.516-3.82 10.576-3.547a1.306 1.306 0 0 1 .86 2.197c-2.763 2.9-6.516 3.363-9.826 3.767-.248.033-.489.06-.736.092-1.577.945-3.187 1.89-4.88 2.555 3.16.952 7.942.75 12.282.56 1.883-.078 3.727-.156 5.46-.156l-.007.007zm14.517-16.133c-.156.873-.293 1.766-.43 2.627-.3 1.922-.586 3.735-1.016 5.22-1.193 4.068-1.251 6.969-.176 7.973.847.782 2.795.652 5.48-.365 1.362-.522 2.163-1.213 2.456-2.119.834-2.614-2.248-7.229-4.965-11.303-.456-.684-.912-1.362-1.349-2.033zM209.92 126.26c-2.978 4.002-5.767 8.193-7.774 12.77-4.534 10.337-6.053 25.975.066 34.586 5.877 8.278 16.921 9.203 26.662 10.025 1.427.117 2.828.241 4.183.378l2.45.248c12.921 1.323 26.291 2.685 39.303 2.105 3.519-.156 7.546-.795 11.814-1.473 7.01-1.115 14.197-2.256 20.4-1.532-.182-7.6-.26-15.273-.136-22.332-.28-.072-.574-.13-.88-.189-6.822-1.206-14.563-.782-22.05-.378-3.661.202-7.128.391-10.477.398h-.084c-7.396 0-13.482-2.23-19.372-4.38-2.997-1.096-6.073-2.223-9.291-3.025-1.74.247-3.44-.209-5.2-.906-4.522-.346-9.285.43-13.918 1.186-5.903.965-12.002 1.962-17.8.724a1.302 1.302 0 0 1-1.03-1.33c.071-1.773.86-3.266 2.345-4.44 5.428-4.275 18.499-2.77 21.704-2.13 2.965.593 5.37 1.675 7.494 2.626.645.287 1.244.56 1.804.795.795.072 1.59.176 2.379.32.762.137 1.518.3 2.26.476 1.408-.352 2.796-1.44 4.477-3.703 1.72-2.314 3.01-4.68 4.261-6.968.704-1.284 1.395-2.549 2.144-3.78-4.743-.75-9.663-4.322-14.198-7.627-2.978-2.164-5.792-4.21-8.236-5.234-11.194-4.687-16.354-3.866-23.3 2.777v.013zm99.73 57.544c.359.078.717.17 1.069.26-.345-3.16.085-6.498.508-9.751.789-6.043 1.12-10.09-1.753-12.157-.09 6.877 0 14.321.176 21.641v.007zm203.025-22.176c-1.446 0-3.036.313-4.789.945-4.209 1.52-20.14 12.972-20.348 18.565-.026.658.15 1.505 1.72 2.203.052.02.097.046.143.072-.345-4.257 7.506-9.1 9.702-10.195 5.356-2.673 8.536-4.824 13.625-8.63 1.329-.991 2.528-1.676 3.642-2.138-1.114-.554-2.346-.828-3.695-.828v.006zm63.783-5.436c7.415 3.598 18.023 7.085 22.87 4.621-5.603-7.802-14.582-6.414-22.87-4.621zM295.4 157.458c3.799 0 7.526.208 11.064.834.163.026.326.059.482.091.307-12.04 1.27-21.934 3.402-25.963 2.912-5.508 7.226-8.89 11.402-12.156 3.304-2.588 6.425-5.032 8.96-8.48 2.058-2.81 2.957-6.884 3.909-11.2 1.57-7.11 3.193-14.457 10.36-16.953 4.893-1.708 9.291-1.552 13.077.462 9.252 4.922 13.214 19.92 16.7 33.16.612 2.32 1.212 4.601 1.83 6.752.522-.423.9-.88 1.128-1.375.873-1.858-.189-4.583-1.42-7.737-.665-1.695-1.414-3.625-1.949-5.652-.482-1.818-.905-3.644-1.316-5.417-2.358-10.149-4.398-18.916-15.032-23.244-4.235-1.72-10.985-3.448-15.813-3.181-1.395.078-2.515.222-3.37.43-.051 4.322-.572 7.77-1.615 10.508-.006.117-.02.24-.033.365-.606 6.381-5.232 12.509-12.073 15.996-6.523 3.33-13.514 3.487-18.7.43-5.337-3.148-16.068-14.875-17.326-23.303 0-.04-.013-.072-.013-.11-6.672-.992-9.95-5.313-12.315-10.13-4.02 1.544-8.549 2.73-13.318 3.982-12.49 3.273-25.412 6.656-32.364 17.026-2.183 3.26-3.975 6.792-5.87 10.534-2.288 4.51-4.653 9.178-7.794 13.382-.67.9-1.368 1.806-2.065 2.705 5.05-2.242 10.53-1.642 18.89 1.858 2.723 1.14 5.655 3.272 8.763 5.534 4.887 3.553 9.89 7.196 14.322 7.222a25.943 25.943 0 0 1 5.864-5.925c1.003-.736 2.072-1.42 3.153-2.08a120.06 120.06 0 0 0 1.857-4.04c3.076-6.89 6.568-14.693 13.716-14.882a1.307 1.307 0 0 1 1.323 1.108c1.564 10.26-5.623 14.354-12.57 18.317-.775.443-1.556.886-2.332 1.35-1.257 2.496-2.613 4.673-4.294 6.172-1.707 1.525-3.492 2.314-5.323 2.555-1.062 1.604-1.974 3.266-2.906 4.974-1.297 2.366-2.632 4.817-4.457 7.274-1.016 1.37-1.994 2.392-2.939 3.142 2.235.691 4.399 1.48 6.516 2.255 5.936 2.171 11.546 4.224 18.472 4.224h.085c3.284-.006 6.711-.195 10.34-.39 3.839-.21 7.741-.424 11.58-.424h.012zm-85.767-5.3c4.94.763 10.113-.085 15.566-.978 2.756-.45 5.552-.906 8.354-1.14a21.869 21.869 0 0 0-3.22-.9c-4.723-.939-15.683-1.454-19.586 1.623-.527.417-.899.88-1.12 1.402l.006-.007zm376.905-.371c2.932.54 6.034.853 7.487-.248.163-.124.345-.293.515-.56-2.04.143-4.998.364-7.995.808h-.007zM409.028 135.04c3.2.84 7.526-.365 11.012-1.454-2.665-13.864-4.868-37.956 7.688-52.108 5.402-6.088 12.367-8.565 19.111-10.957 4.86-1.727 9.357-3.324 12.856-6.12-3.493.501-7.507 1.733-11.025 2.809-2.34.717-4.548 1.395-6.294 1.76-9.135 1.884-15.547 4.902-19.293 14.08-3.786 9.275-6.366 19.502-8.882 30.036-.514 2.138-1.198 4.426-1.922 6.844-1.563 5.215-3.18 10.593-3.238 15.103l-.013.007zm-34.032-7.222c-.352.136-.723.273-1.108.404-1.335.443-3.108.723-5.16 1.056-5.786.925-10.745 1.968-12.224 4.934 1.57-.456 3.186-.88 4.868-1.33 4.717-1.251 9.59-2.542 13.787-4.543-.052-.17-.11-.345-.163-.515v-.006zm-94.199-18.174c-4.77.998-7.538 7.197-10.223 13.2l-.313.704c6.028-3.455 11.077-6.681 10.543-13.91l-.007.006zm273.806-4.204h-.045c-1.062.32-2.874 5.704-2.92 11.231-.019 2.425.203 4.667.64 6.766.006-.02.019-.039.025-.058 2.535-5.143 6.36-12.913 4.197-16.133-1.01-1.506-1.668-1.813-1.897-1.813v.007zM291.718 81.864c1.414 7.437 11.376 18.297 15.996 21.022 4.411 2.6 10.464 2.412 16.192-.509 3.74-1.91 6.73-4.673 8.594-7.809-3.538 2.458-8.64 3.22-15.52 2.327-8.354-1.088-20.18-7.098-24.819-15.266-.13.111-.28.19-.45.242l.007-.007zm-.091-6.799a1.314 1.314 0 0 1 1.29 1.102c1.466 9.328 15.43 16.974 24.401 18.14 6.953.907 11.761.027 14.7-2.685 1.082-.997 1.948-2.268 2.606-3.852.111-1.956-.097-3.618-.286-5.11-.28-2.237-.528-4.166.716-5.652a4.257 4.257 0 0 1 1.147-.952 68.848 68.848 0 0 0-.078-2.236l-.104-2.281c-.567-12.255-1.147-24.737-6.119-34.254-4.391 3.174-12.106 3.39-18.674 3.572-4.483.124-8.718.248-10.66 1.252-2.098 1.088-3.772 3.422-4.261 5.95-.404 2.06.033 3.964 1.225 5.365a1.306 1.306 0 0 1-.639 2.099c-2.013.567-3.668 1.878-4.417 3.5-.58 1.252-.567 2.602.032 3.912a1.3 1.3 0 0 1-.593 1.701c-1.088.554-3.27.958-4.215.958h-.007c-.482 0-.925-.267-1.147-.69a259.314 259.314 0 0 0-1.603-2.96c-.169-.313-.345-.632-.52-.958-.959-.3-1.864-.756-2.73-1.343-.626-.143-1.226-.117-1.662.267-1.401 1.232-1.271 5.384.26 8.376 1.486 2.914 4 4.791 6.653 6.786.88.658 1.772 1.33 2.639 2.047a6.416 6.416 0 0 1 1.081-1.623c.248-.274.6-.424.958-.424l.007-.007zm181.216-26.862c-2.86 11.257-2.893 22.977.483 30.845 3.603 8.422 7.949 13.389 12.9 14.751 3.989 1.102 8.51-.163 13.443-3.748 7.747-5.632 16.309-15.833 18.25-25.917-3.407.717-7.095.489-10.666-.02-10.712-1.518-29.712-11.941-31.595-24.574a67.068 67.068 0 0 0-1.707 4.778c-.202 1.278-.462 2.627-1.108 3.879v.006zM280.491 73.02c1.727 2.757 3.812 4.725 6.894 5.67-.645-.514-1.323-1.023-2.007-1.538-1.681-1.264-3.401-2.548-4.887-4.139v.007zM27.98 71.559l2.183 4.054 6.405-2.666 75.42-47.734-2.04-5.104-81.962 51.443-.006.006zm273.083-50.303c-9.383 0-20.082 3.312-22.604 12.287-2.059 7.327 4.45 19.256 8.764 27.156.424.776.834 1.525 1.205 2.223.385-.059.821-.144 1.219-.248-.404-1.597-.254-3.214.45-4.745.847-1.826 2.443-3.357 4.43-4.296-.938-1.766-1.218-3.865-.788-6.069.651-3.33 2.802-6.303 5.623-7.77 2.463-1.277 6.783-1.401 11.78-1.544 6.594-.183 13.866-.391 17.437-3.253-3.975-6.264-10.243-10.97-20.277-13.043-2.183-.45-4.666-.704-7.246-.704l.007.006zm176.492 14.028s.013.013.026.013c.404.267.626.73.58 1.212-1.146 12.085 18.42 23.466 29.458 25.03 3.792.542 6.96.58 9.611.053-2.522-1.35-5.304-2.516-8.216-3.735-7.363-3.096-14.98-6.29-19.789-12.991-3.74-5.202-5.89-12.19-5.63-19.106-1.596 1.95-2.951 3.977-4.072 5.88a55.689 55.689 0 0 0-1.961 3.65l-.007-.006zm9.083-12.815c-1.218 6.98.32 14.783 4.698 20.878 4.379 6.101 11.65 9.152 18.681 12.111 3.668 1.538 7.128 2.992 10.23 4.863.098.058.189.13.267.215.221-.104.443-.222.658-.339.13-2.301.658-4.921 1.166-7.49.489-2.437.945-4.738.939-6.25-.033-7.132-1.18-20.084-8.517-26.674-3.655-3.285-8.503-4.634-14.412-4.022-5.545.574-10.093 3.286-13.716 6.708h.006zm16.427-9.465c5.35 0 9.865 1.623 13.442 4.837 7.682 6.896 9.343 19.36 9.382 28.602.007 1.773-.475 4.205-.99 6.773-.3 1.499-.632 3.148-.86 4.713 1.76-1.904 3.056-4.511 4.014-7.9 3.062-10.789-.118-27.313-6.81-35.363-8.848-10.65-23.821-11.25-33.992-7.307-11.07 4.296-17.378 13.304-16.876 24.099v.058c5.682-10.077 15.84-20.357 20.499-22.958a1.302 1.302 0 0 1 1.563 2.047c-2.052 2.1-3.596 4.654-4.632 7.464 3.785-2.797 7.91-4.459 12.269-4.909a29.237 29.237 0 0 1 2.978-.156h.013zM300.8 14.705c-10.36 0-23.255 4.544-26.076 14.92-1.955 7.19 1.18 21.707 7.408 27.104-4.014-7.737-8.08-17.163-6.19-23.896 3.708-13.18 21.463-15.788 32.885-13.434 10.484 2.164 17.156 7.046 21.45 13.46.196-.437.346-.906.43-1.421.28-1.61-.163-3.188-1.348-4.817-4.718-6.486-18.961-10.88-24.102-11.616a31.38 31.38 0 0 0-4.464-.306l.007.006zm184.892 1.428c-6.953 6.825-15.743 18.219-16.68 26.367-.255 2.183.09 3.917 1.042 5.253.15-.195.28-.39.39-.6.287-1.107.6-2.202.939-3.298l.078-.495c.3-1.988.658-4.341 2.411-6.284a60.2 60.2 0 0 1 3.401-6.766c2.072-3.533 4.366-6.544 6.835-9.021.352-1.76.873-3.487 1.584-5.15v-.006zM163.324 37.696h45.363c-1.023-4.127-4.58-15.475-13.435-20.05-5.95-3.078-13.286-2.582-21.815 1.472a1.29 1.29 0 0 1-1.043.033l-6.685-2.673-2.43 4.863c2.639.489 4.307.77 4.352.776a1.306 1.306 0 0 1 .887 1.988c-.053.078-4.6 7.307-5.194 13.597v-.006zm-42.639-17.033 36.645 6.734 2.072-4.146c-5.095-.99-11.924-2.418-18.055-4.061-6.314-1.682-7.969-5.554-9.429-8.97-1.446-3.389-2.697-6.322-8.411-7.391-2.972-.554-5.545-.085-7.656 1.408-3.936 2.777-5.285 8.252-5.571 9.66l.938 2.34 4.04-2.536c.3-.189.67-.247 1.016-.156.345.091.639.32.815.632l3.603 6.486h-.007z" fill-rule="nonzero"/>
</svg>
