<?xml version="1.0" standalone="no"?>
<!DOCTYPE svg PUBLIC "-//W3C//DTD SVG 20010904//EN"
 "http://www.w3.org/TR/2001/REC-SVG-20010904/DTD/svg10.dtd">
<svg version="1.0" xmlns="http://www.w3.org/2000/svg"
 width="7198.000000pt" height="3683.000000pt" viewBox="0 0 7198.000000 3683.000000"
 preserveAspectRatio="xMidYMid meet">

<g transform="translate(0.000000,3683.000000) scale(0.100000,-0.100000)" stroke="none">
<path d="M10245 35323 c-475 -25 -968 -126 -1355 -278 -599 -235 -1159 -671
-1477 -1150 -482 -726 -646 -1802 -433 -2831 65 -309 122 -481 300 -894 294
-684 515 -1269 595 -1574 96 -369 132 -690 122 -1106 -3 -135 -13 -316 -22
-403 -14 -130 -15 -163 -4 -189 16 -39 63 -68 112 -68 70 0 261 77 381 154
l58 37 -4 -195 c-2 -107 -5 -197 -8 -200 -3 -3 -71 6 -150 19 -225 36 -378 48
-550 42 -531 -19 -741 -234 -1210 -1236 -192 -410 -254 -535 -318 -640 -25
-42 -174 -249 -332 -461 -477 -640 -627 -865 -779 -1169 -335 -668 -398 -1338
-266 -2831 13 -151 42 -471 65 -710 52 -573 68 -790 82 -1178 22 -589 -15
-1107 -114 -1597 -31 -157 -31 -203 -1 -238 58 -65 238 -85 422 -47 224 46
445 135 976 393 626 304 803 380 1006 432 124 32 804 123 1179 157 207 19 783
16 950 -5 202 -26 316 -48 297 -58 -32 -19 -310 -80 -537 -118 -129 -22 -433
-68 -675 -101 -680 -94 -959 -140 -1245 -206 -740 -171 -1132 -414 -1264 -782
-30 -84 -31 -92 -30 -252 0 -151 2 -173 28 -255 69 -226 160 -394 406 -750
620 -897 1158 -1479 1545 -1672 536 -269 1376 -146 2542 371 95 42 174 76 177
76 5 0 302 -399 562 -755 105 -143 332 -453 504 -690 1204 -1649 1861 -2457
2650 -3258 447 -455 941 -891 1341 -1186 l87 -63 -133 -132 c-142 -140 -255
-277 -364 -440 -497 -743 -804 -1840 -950 -3406 -46 -488 -71 -918 -105 -1785
-14 -346 -28 -676 -32 -732 l-6 -103 -6805 0 -6805 0 -34 -34 c-30 -30 -34
-40 -34 -86 0 -46 4 -56 34 -86 l34 -34 6889 0 c6226 0 6891 2 6911 16 55 38
58 69 87 829 54 1436 104 2087 216 2840 176 1185 494 2069 946 2630 90 112
310 329 395 390 31 22 63 52 72 67 21 35 20 107 -2 135 -9 11 -116 95 -237
186 -697 523 -1388 1185 -2105 2017 -78 91 -156 183 -173 205 l-32 40 55 -46
c311 -259 418 -330 1220 -809 674 -401 1004 -611 1300 -823 542 -390 820 -702
820 -919 0 -202 -184 -605 -561 -1230 -65 -108 -234 -380 -376 -605 -489 -776
-558 -902 -713 -1308 -339 -885 -546 -1680 -627 -2410 -26 -232 -26 -794 0
-985 21 -152 34 -184 81 -207 31 -14 447 -14 4997 6 8103 35 7604 31 7639 52
60 37 64 57 56 329 -21 811 -141 1675 -346 2498 -395 1588 -1028 2761 -1845
3417 -211 170 -562 365 -830 460 -238 86 -549 155 -840 187 -161 18 -850 18
-1040 0 -359 -33 -610 -67 -1260 -168 -448 -70 -668 -110 -1105 -205 -838
-182 -1194 -246 -1595 -284 -225 -22 -580 -22 -740 0 -137 18 -255 43 -255 54
0 4 23 45 51 91 69 113 258 302 389 388 540 357 1432 560 2840 647 350 21 627
33 1180 50 1337 41 1477 54 2445 230 566 103 1034 205 1520 329 138 35 251 63
252 62 2 -1 -4 -36 -13 -77 -25 -116 -30 -512 -10 -724 61 -644 193 -1187 622
-2569 182 -586 243 -791 334 -1125 85 -310 135 -476 330 -1081 199 -618 233
-731 305 -990 84 -308 179 -755 270 -1264 19 -110 42 -210 51 -223 8 -14 30
-30 47 -38 26 -10 1039 -14 5349 -20 5142 -6 5318 -6 5348 12 64 38 268 323
374 524 l56 106 138 6 c198 8 413 51 636 127 50 16 90 30 91 30 1 0 -9 -46
-22 -103 -38 -171 -55 -321 -57 -509 -1 -164 0 -178 20 -205 11 -15 36 -36 55
-45 32 -17 799 -18 15589 -17 12024 0 15563 3 15590 12 41 14 80 68 80 109 0
43 -26 91 -59 111 -27 16 -937 17 -15530 17 l-15501 0 0 34 c0 179 59 484 129
666 l21 55 208 102 c794 389 1770 1070 2782 1942 l175 151 170 54 c440 140
758 233 1550 451 1438 396 1747 510 2351 870 l121 72 94 5 c67 4 113 13 163
32 301 115 711 508 1178 1130 162 216 295 412 354 521 21 39 72 124 115 190
160 251 390 670 618 1125 459 918 698 1627 718 2130 l6 145 78 160 c123 250
203 519 241 805 16 123 16 458 0 580 -88 668 -415 1118 -884 1214 -165 34
-400 14 -580 -50 -329 -116 -704 -391 -996 -729 -197 -229 -356 -460 -721
-1045 -315 -505 -467 -713 -691 -944 -210 -216 -383 -343 -640 -472 -171 -85
-530 -231 -530 -215 0 3 7 38 15 76 115 545 -104 1001 -660 1372 -209 140
-468 272 -965 493 -325 145 -394 179 -691 341 -2537 1382 -4365 2593 -5869
3888 -323 278 -532 472 -1060 980 -809 780 -1283 1194 -1786 1557 -64 47 -76
61 -131 161 -79 140 -246 390 -354 529 -109 142 -406 439 -536 537 -566 429
-1209 613 -2068 594 -510 -12 -869 -62 -1570 -220 -132 -30 -285 -72 -340 -92
-344 -129 -880 -467 -1470 -928 -88 -69 -161 -124 -163 -123 -1 2 7 83 18 180
l20 178 195 251 c107 138 197 263 200 277 2 14 86 786 185 1715 100 930 201
1843 225 2030 216 1673 355 3163 355 3800 0 201 -2 223 -19 249 -25 38 -57 55
-103 56 -42 0 -175 -45 -297 -101 l-86 -40 -30 38 c-102 129 -251 187 -421
163 -295 -41 -624 -270 -1332 -927 -340 -316 -452 -453 -567 -688 -158 -323
-216 -644 -429 -2355 -125 -1001 -330 -2718 -486 -4055 -39 -335 -73 -615 -75
-621 -2 -7 -55 -13 -139 -18 -320 -16 -731 -85 -1163 -195 -62 -16 -113 -27
-113 -24 0 2 18 27 39 56 52 69 106 184 130 278 63 247 46 608 -39 826 -90
232 -282 422 -522 517 -198 78 -400 109 -703 109 -349 0 -605 -34 -1260 -163
-459 -91 -569 -110 -643 -110 -152 0 -446 157 -702 376 -238 203 -450 433
-945 1024 -545 651 -799 906 -1104 1111 -156 106 -235 143 -287 135 -50 -6
-289 -98 -393 -150 -40 -21 -75 -36 -77 -34 -2 2 35 53 82 114 47 60 90 120
96 134 26 65 -15 132 -201 323 -260 268 -491 433 -1106 790 -617 358 -733 440
-1215 862 -124 109 -283 244 -355 302 -623 502 -1150 635 -1891 479 -177 -38
-393 -102 -709 -211 -766 -265 -1016 -336 -1336 -379 -116 -16 -566 -47 -938
-66 -264 -13 -777 -13 -973 0 -424 29 -736 95 -964 204 -61 30 -114 58 -117
63 -3 5 7 51 23 103 16 51 41 145 56 209 14 64 27 117 28 118 1 1 110 -22 241
-53 325 -74 405 -90 602 -118 773 -112 1499 -148 2108 -105 958 67 1643 318
2066 755 158 164 263 333 328 529 71 216 90 399 91 866 0 168 3 327 6 352 l7
46 92 31 c161 54 267 132 323 239 70 133 69 247 -7 552 -52 211 -91 440 -112
659 -14 153 -8 314 27 640 46 445 44 906 -6 1249 -71 483 -245 909 -501 1226
l-65 81 30 49 c36 62 89 190 112 270 25 92 30 286 10 379 -64 288 -264 522
-636 746 -470 284 -1254 511 -1996 579 -341 32 -553 41 -858 39 -154 -1 -308
-3 -341 -5z m1035 -267 c392 -34 657 -77 995 -163 647 -164 1131 -397 1378
-664 84 -90 128 -162 162 -264 25 -73 27 -90 22 -190 -6 -146 -41 -242 -147
-410 -78 -123 -75 -134 68 -297 288 -328 464 -799 512 -1374 20 -227 8 -676
-25 -984 -31 -289 -38 -578 -17 -745 31 -238 65 -432 108 -600 75 -295 70
-384 -24 -449 -49 -34 -150 -72 -244 -91 -38 -8 -79 -22 -92 -30 -55 -36 -56
-44 -66 -582 -10 -529 -16 -599 -65 -766 -62 -213 -177 -385 -378 -565 -208
-185 -518 -342 -866 -438 -672 -185 -1561 -218 -2631 -98 -409 45 -575 75
-1039 182 l-164 38 -2 355 -1 354 27 50 c97 178 142 445 119 710 -26 313 -83
553 -285 1210 -102 329 -168 581 -190 720 -23 144 -21 293 5 380 34 112 123
283 179 347 142 158 265 130 645 -146 286 -208 387 -266 592 -335 405 -137
664 -70 739 193 14 46 16 86 13 185 -3 69 -7 133 -9 140 -3 11 16 19 74 32
418 91 640 335 698 767 17 130 6 482 -25 772 -29 269 -35 505 -16 585 18 70
72 171 125 232 124 142 363 239 670 273 142 16 533 13 785 -5 505 -36 554 -38
593 -21 43 17 74 64 83 123 3 23 17 57 30 74 37 50 39 85 10 195 -155 580
-617 920 -1387 1019 -174 23 -519 30 -724 16 -1126 -79 -2391 -532 -3206
-1147 -308 -233 -535 -499 -628 -737 -146 -377 -212 -855 -182 -1322 39 -601
149 -1087 506 -2245 306 -992 408 -1389 475 -1848 19 -131 19 -144 4 -167 -23
-36 -130 -120 -196 -156 l-59 -30 8 83 c13 134 9 660 -5 793 -28 254 -73 496
-133 710 -91 320 -296 859 -583 1528 -73 172 -152 367 -175 435 -212 628 -256
1379 -121 2052 88 436 247 812 478 1124 91 123 348 381 492 493 515 399 1113
626 1845 697 244 24 234 24 660 21 256 -2 467 -9 585 -19z m975 -534 c477 -74
802 -246 994 -526 43 -63 96 -173 120 -249 21 -68 21 -69 2 -106 l-19 -37
-174 12 c-422 30 -515 34 -718 34 -537 0 -882 -91 -1120 -294 -123 -105 -225
-279 -256 -435 -23 -115 -15 -396 21 -731 23 -219 26 -285 22 -465 -4 -176 -8
-223 -26 -290 -62 -222 -203 -361 -427 -419 -33 -9 -108 -21 -165 -26 -120
-13 -162 -30 -183 -75 -21 -43 -20 -53 10 -170 29 -117 35 -244 13 -290 -40
-85 -201 -85 -439 1 -159 57 -241 105 -505 297 -190 138 -308 209 -414 247
-326 119 -577 -43 -756 -486 -117 -289 -85 -576 145 -1324 209 -678 268 -931
284 -1210 l6 -95 -16 60 c-9 33 -42 168 -74 300 -71 292 -144 545 -335 1165
-323 1049 -427 1482 -485 2022 -62 589 40 1241 243 1550 449 684 1993 1395
3352 1543 212 23 220 23 505 20 203 -3 295 -8 395 -23z m16927 -6592 c41 -12
98 -55 97 -73 0 -7 -53 -46 -117 -87 -286 -183 -746 -554 -1060 -855 -98 -93
-131 -138 -331 -459 -173 -276 -271 -501 -305 -701 -9 -49 -32 -250 -51 -445
-98 -977 -389 -3508 -706 -6155 l-92 -760 -100 -180 c-102 -183 -246 -426
-353 -593 l-59 -92 -118 -50 c-431 -182 -705 -250 -2307 -570 -1005 -200
-1330 -270 -1770 -380 -338 -84 -803 -213 -995 -275 -11 -4 48 29 130 72 408
215 656 409 862 675 291 373 531 762 602 974 43 129 47 181 22 286 -54 227
-175 349 -376 379 -93 13 -182 8 -418 -27 -93 -13 -174 -24 -180 -24 -19 1 60
40 152 77 57 22 101 33 136 33 40 0 62 7 96 29 42 28 157 58 353 93 l68 12 21
-30 c50 -72 157 -165 229 -199 126 -60 221 -78 373 -72 87 3 152 12 196 25
l66 20 7 -115 c8 -150 30 -252 72 -339 40 -85 111 -154 181 -178 71 -24 177
-21 239 8 141 65 228 204 402 636 119 295 129 318 150 324 177 54 797 209
1022 255 267 54 670 110 670 92 0 -2 -32 -65 -71 -140 -179 -341 -466 -830
-753 -1284 -147 -232 -156 -250 -156 -296 0 -42 5 -54 30 -80 17 -17 46 -33
65 -37 94 -17 280 52 420 158 198 148 446 449 663 803 125 206 117 178 152
480 376 3240 691 5830 796 6565 35 243 91 559 120 675 74 295 190 515 379 713
110 116 494 472 674 626 342 292 569 442 727 480 73 18 99 19 146 6z m568
-515 c-37 -719 -151 -1844 -340 -3350 -32 -258 -136 -1199 -231 -2090 l-173
-1620 -48 -64 c-40 -53 -48 -60 -48 -40 0 13 25 251 55 529 369 3371 573 5680
590 6670 l5 275 97 48 98 48 3 -98 c2 -54 -1 -192 -8 -308z m-443 -97 c-22
-883 -254 -3427 -608 -6673 -87 -801 -86 -794 -103 -819 -20 -31 -484 -612
-595 -746 -282 -340 -672 -730 -966 -966 -192 -154 -493 -363 -472 -327 38 64
215 379 250 443 l46 86 95 794 c336 2797 584 4956 715 6230 43 417 55 476 129
646 49 113 131 255 283 492 108 169 128 194 226 285 258 239 584 510 803 668
126 91 194 138 199 139 2 0 1 -114 -2 -252z m-21135 -898 c149 -19 296 -44
302 -51 9 -10 -51 -240 -96 -373 -63 -188 -61 -201 40 -277 143 -107 387 -208
637 -264 282 -63 510 -85 960 -92 375 -6 627 2 1165 37 695 45 787 67 1920
452 484 165 739 223 1020 235 444 18 816 -123 1254 -475 66 -52 224 -187 353
-299 504 -441 636 -534 1353 -950 297 -173 509 -308 645 -413 124 -95 277
-233 350 -315 l67 -75 -87 -117 c-99 -133 -226 -324 -306 -458 -29 -49 -79
-118 -110 -153 -65 -72 -144 -183 -184 -259 -15 -29 -30 -53 -34 -53 -9 0
-189 184 -248 255 -82 98 -217 282 -438 595 -437 619 -644 874 -872 1070 -259
224 -473 321 -708 322 -376 0 -541 -196 -435 -514 91 -272 365 -633 845 -1113
324 -324 732 -689 1135 -1016 263 -213 329 -261 626 -461 510 -342 770 -541
969 -742 172 -173 190 -208 190 -361 0 -101 -2 -115 -28 -164 -93 -180 -281
-290 -809 -470 -112 -38 -313 -110 -448 -161 -602 -226 -1250 -428 -2325 -725
-1259 -348 -1641 -458 -1842 -531 -117 -42 -132 -46 -188 -39 -74 8 -285 43
-305 51 -9 3 91 58 240 132 266 133 402 213 548 322 223 167 377 380 427 592
26 113 14 166 -45 202 -36 21 -188 22 -360 1 -326 -38 -556 -103 -1098 -309
-387 -147 -509 -185 -676 -207 -259 -34 -474 60 -652 284 -154 194 -215 319
-547 1122 -120 290 -206 483 -301 677 -459 936 -949 1390 -1538 1425 -120 7
-156 -2 -188 -47 -22 -31 -27 -99 -9 -132 6 -11 48 -66 93 -122 361 -443 716
-1003 996 -1571 506 -1026 797 -2082 851 -3080 7 -136 16 -219 25 -236 20 -40
70 -57 203 -70 278 -26 658 40 1124 195 238 80 405 144 902 346 l390 158 320
-5 c325 -6 530 3 795 33 742 83 1618 308 2530 649 642 240 1269 515 2019 887
l405 200 180 -42 c617 -144 1017 -314 1307 -556 185 -154 344 -366 422 -564
112 -284 115 -627 9 -926 -131 -370 -394 -499 -716 -350 l-76 35 32 68 c42 92
59 114 108 143 24 14 59 39 78 56 32 28 36 38 43 100 12 102 9 244 -4 284 -7
20 -27 44 -47 58 -34 23 -39 24 -185 19 -300 -10 -522 -96 -1045 -406 -510
-302 -776 -405 -1080 -418 -205 -8 -324 12 -645 112 -206 64 -372 59 -598 -17
-245 -81 -410 -195 -822 -567 -104 -95 -242 -210 -305 -256 -1516 -1114 -2242
-1605 -2875 -1947 l-140 -76 -250 -5 c-255 -6 -375 -18 -550 -59 -305 -70
-623 -235 -826 -428 -68 -64 -69 -66 -69 -117 0 -62 30 -105 87 -124 45 -14
238 -6 388 16 307 46 690 177 1111 380 l159 77 80 -7 c258 -21 594 -81 1210
-219 259 -57 541 -118 627 -135 303 -59 1106 -167 2213 -296 1482 -173 2089
-252 2603 -340 1053 -181 1685 -435 2272 -913 138 -113 469 -445 600 -601 188
-228 304 -421 655 -1096 305 -588 443 -832 606 -1076 l78 -116 -112 -27 c-728
-176 -1629 -352 -2327 -457 -189 -28 -471 -31 -645 -5 -656 96 -1249 468
-1756 1101 -143 179 -211 307 -289 544 -85 256 -135 530 -205 1112 -81 679
-136 967 -230 1209 -72 188 -155 319 -269 428 -80 76 -113 89 -173 69 -91 -29
-201 -285 -252 -586 -89 -526 -17 -1325 184 -2023 136 -477 267 -703 766
-1328 339 -425 447 -573 553 -758 60 -103 119 -243 109 -253 -5 -5 -44 -16
-88 -26 -100 -22 -357 -25 -460 -4 -311 61 -622 252 -852 520 -174 204 -344
526 -374 711 -7 45 -15 62 -48 92 -21 20 -57 42 -79 49 -35 10 -45 9 -78 -8
-49 -25 -77 -76 -69 -125 3 -24 -3 -66 -19 -122 -32 -110 -51 -238 -76 -529
-20 -229 -37 -351 -61 -427 -18 -56 -61 -151 -68 -148 -4 2 -128 100 -276 219
-149 118 -493 393 -765 610 -834 666 -1271 1033 -1795 1508 -216 196 -854 834
-1011 1011 -352 397 -636 772 -834 1103 -31 53 -65 97 -84 108 -67 43 -168 -1
-182 -79 -8 -40 15 -156 63 -326 18 -65 32 -121 30 -123 -2 -2 -153 200 -335
449 -469 643 -678 920 -704 935 -47 25 -100 16 -219 -41 -423 -199 -881 -369
-1244 -461 -541 -137 -945 -134 -1241 10 -344 167 -880 754 -1467 1605 -230
334 -323 508 -367 690 -22 93 -26 217 -9 290 56 245 340 448 822 589 318 93
619 149 1412 262 701 99 857 125 1090 176 276 60 480 130 618 211 93 54 111
133 49 203 -22 25 -52 38 -157 70 -523 158 -1154 186 -1995 88 -236 -27 -719
-97 -800 -115 -219 -49 -421 -134 -1075 -451 -475 -231 -684 -319 -870 -368
-114 -29 -181 -35 -178 -15 1 8 14 80 27 160 62 361 89 719 88 1185 0 501 -19
808 -112 1796 -87 935 -94 1047 -95 1554 0 378 3 473 18 590 69 533 205 890
525 1380 128 197 237 349 544 757 131 174 259 350 284 390 71 110 186 336 354
698 247 531 379 757 537 921 99 103 181 150 298 173 106 21 339 19 517 -4z
m7103 -1922 c77 -16 221 -88 315 -158 116 -85 342 -315 481 -490 145 -181 202
-259 474 -645 399 -567 583 -789 757 -914 47 -34 48 -35 40 -75 -4 -23 -7 -91
-7 -152 l0 -111 -55 35 c-251 160 -829 646 -1299 1092 -628 597 -987 1041
-1042 1286 -15 68 -3 99 47 120 76 32 176 36 289 12z m3539 -1353 c299 -187
552 -442 1152 -1160 138 -165 302 -358 365 -430 158 -181 484 -505 609 -605
300 -239 611 -390 804 -390 100 0 212 18 696 115 658 131 1017 175 1320 162
543 -24 827 -203 922 -582 20 -79 22 -114 22 -280 -1 -159 -5 -203 -22 -266
-33 -121 -75 -194 -161 -279 -62 -62 -98 -87 -199 -139 -100 -52 -132 -74
-169 -117 l-46 -53 -248 -60 c-136 -34 -273 -70 -304 -82 -31 -11 -58 -19 -59
-17 -1 1 -8 28 -15 58 -16 72 -46 115 -99 141 -38 19 -53 20 -145 14 -208 -13
-476 -36 -594 -50 -67 -8 -126 -15 -132 -15 -6 0 -32 42 -57 93 -64 126 -106
190 -171 259 -133 138 -248 170 -318 87 -23 -29 -25 -36 -24 -147 1 -85 -4
-131 -16 -167 -20 -61 -116 -234 -129 -235 -15 0 -286 149 -516 283 -768 448
-1540 990 -2565 1797 -346 273 -384 300 -645 450 -327 188 -387 236 -446 356
-32 65 -37 85 -42 168 -5 94 -4 95 23 118 48 41 55 51 108 183 29 72 82 186
118 255 58 114 70 130 134 183 149 125 387 260 625 356 69 28 128 51 131 51 3
0 45 -25 93 -55z m-9924 -740 c128 -65 223 -136 350 -264 328 -330 568 -761
978 -1756 77 -187 158 -381 180 -431 240 -544 496 -830 828 -926 69 -20 101
-23 249 -23 141 0 188 4 275 23 142 32 336 96 640 212 478 183 734 253 1027
284 l63 7 -10 -26 c-40 -105 -206 -281 -370 -391 -140 -95 -252 -155 -603
-327 -163 -80 -323 -162 -357 -182 -87 -53 -109 -107 -73 -182 21 -45 61 -64
244 -110 76 -20 138 -37 137 -38 -8 -7 -539 -217 -687 -272 -464 -171 -822
-255 -1096 -257 l-130 -1 -12 184 c-98 1479 -705 3078 -1663 4386 -55 75 -100
138 -100 141 0 9 43 -8 130 -51z m10005 -1784 c131 -102 500 -379 705 -530 34
-25 39 -32 20 -27 -147 39 -505 127 -577 142 l-93 18 -277 -141 c-1648 -838
-3117 -1371 -4308 -1563 -269 -43 -666 -86 -647 -69 8 7 65 23 995 280 1302
360 1886 539 2482 761 132 50 357 130 499 180 313 108 411 146 537 208 254
125 407 269 476 448 33 85 43 259 21 364 -9 42 -10 65 -4 61 6 -4 83 -63 171
-132z m14025 -141 c825 -104 1392 -427 1889 -1079 39 -52 70 -96 67 -98 -2 -2
-45 19 -96 47 -396 224 -870 400 -1250 465 -288 50 -699 69 -985 46 -837 -67
-1670 -327 -2730 -851 -545 -269 -963 -515 -1485 -873 -552 -378 -1024 -740
-2045 -1567 -242 -196 -595 -480 -785 -630 -414 -328 -640 -516 -815 -677
-937 -861 -1126 -1655 -655 -2747 38 -87 66 -155 61 -150 -5 5 -41 59 -81 119
-534 804 -1214 1450 -1890 1794 -180 92 -274 132 -460 196 -652 223 -1572 393
-2715 501 l-80 8 60 8 c476 65 713 106 1065 184 394 87 733 175 1520 396 774
216 826 227 1710 358 919 136 1362 232 1770 382 570 211 871 444 1231 950 44
61 55 69 174 133 709 374 1279 877 1975 1741 100 123 182 224 184 224 1 0 -4
-48 -10 -107 -7 -60 -13 -134 -14 -167 0 -53 3 -61 34 -92 30 -30 40 -34 84
-34 46 0 56 5 115 53 725 591 1168 900 1581 1103 185 91 248 112 506 170 562
125 865 175 1245 203 151 12 712 6 825 -9z m257 -871 c609 -51 1206 -277 1853
-703 l155 -102 117 -230 c330 -650 597 -1246 1195 -2674 616 -1472 814 -1916
1169 -2630 253 -510 427 -831 677 -1250 163 -273 297 -480 732 -1129 627 -935
897 -1354 1207 -1870 149 -249 234 -405 407 -755 285 -572 368 -705 571 -906
116 -116 217 -190 348 -256 92 -46 268 -106 364 -124 l57 -11 -6 -32 c-23
-129 -103 -294 -269 -554 -147 -231 -168 -273 -160 -317 10 -55 48 -92 109
-108 83 -21 449 -18 557 5 217 47 468 153 698 297 152 96 402 286 712 543 463
385 660 526 892 641 233 116 401 156 658 156 451 0 631 -123 590 -402 -58
-397 -484 -1023 -1289 -1893 -240 -260 -541 -564 -729 -738 l-164 -151 -201
-72 c-1048 -371 -1776 -752 -2302 -1205 -114 -98 -322 -310 -405 -413 -94
-116 -219 -308 -284 -434 l-56 -111 -105 -41 c-272 -106 -491 -161 -734 -184
l-54 -5 7 37 c33 195 32 266 -8 457 -14 66 -64 320 -111 565 -47 245 -107 537
-132 650 -25 113 -48 216 -50 230 -4 22 6 31 94 83 54 32 204 110 333 174 605
297 783 387 885 452 337 212 550 433 655 679 61 144 108 360 93 435 -7 38 -55
83 -95 91 -85 15 -481 -115 -733 -241 -300 -151 -619 -364 -1220 -817 -182
-136 -221 -162 -227 -148 -147 350 -214 483 -342 677 -175 265 -293 393 -676
733 -331 294 -785 747 -942 940 -365 451 -589 854 -883 1597 -511 1286 -1045
2205 -1708 2934 -204 224 -504 490 -707 626 -101 68 -327 180 -535 265 -204
84 -378 168 -466 225 -234 151 -351 383 -319 630 14 109 54 233 116 357 63
126 91 172 284 468 189 289 238 371 309 520 94 197 133 351 135 530 1 98 -2
120 -19 147 -37 62 -90 73 -260 52 -128 -16 -243 -51 -370 -113 -274 -135
-487 -338 -880 -841 -82 -104 -192 -242 -243 -305 -132 -160 -387 -411 -502
-492 -109 -78 -281 -166 -390 -202 -75 -24 -241 -56 -288 -56 l-25 0 6 103
c13 208 64 389 171 613 79 165 162 306 366 624 194 304 273 437 349 587 68
137 131 300 131 340 0 59 -64 123 -123 123 -67 0 -252 -84 -379 -172 -237
-164 -421 -369 -804 -895 -233 -320 -335 -448 -506 -633 -445 -480 -1077 -991
-1908 -1543 -872 -578 -1521 -847 -2046 -847 -221 0 -382 37 -556 126 -116 60
-194 121 -305 238 -118 123 -209 261 -321 489 -149 301 -232 531 -284 789 -31
151 -33 485 -5 618 80 376 280 704 662 1085 230 231 446 416 950 816 149 117
392 312 540 432 1475 1192 1932 1539 2580 1957 1255 811 2664 1368 3685 1459
69 6 139 13 155 15 73 8 436 5 552 -5z m-10966 -480 c16 -34 29 -62 27 -63 -2
-2 -29 -7 -61 -13 -51 -9 -57 -8 -51 6 3 9 15 42 26 74 11 31 22 57 24 57 2 0
18 -27 35 -61z m-991 -101 c91 -52 193 -110 228 -129 34 -18 62 -36 62 -39 0
-3 -36 -24 -80 -48 -44 -23 -112 -67 -152 -97 l-72 -55 -23 86 c-30 112 -72
215 -127 313 -25 44 -46 83 -46 87 0 3 10 0 23 -8 12 -8 96 -58 187 -110z
m2028 -149 c-3 -30 -8 -35 -59 -55 -175 -67 -341 -63 -481 13 -47 25 -61 43
-36 43 7 0 112 9 233 20 260 23 327 27 338 19 5 -4 7 -21 5 -40z m2832 -96
l-12 -108 -83 -141 c-131 -220 -327 -485 -440 -594 -46 -44 -45 -43 43 100
115 188 306 515 413 707 46 83 86 150 88 148 1 -2 -2 -52 -9 -112z m-2110 42
c0 -3 -32 -86 -71 -183 -84 -208 -168 -376 -215 -427 -28 -31 -38 -36 -70 -33
-31 2 -42 9 -58 37 -33 56 -47 139 -53 307 l-6 161 94 37 c51 21 154 53 229
71 153 38 150 37 150 30z m11843 -503 c370 -308 621 -538 1287 -1177 566 -543
702 -668 1065 -980 1415 -1213 3142 -2370 5445 -3647 715 -397 760 -420 1220
-624 596 -264 871 -423 1091 -632 163 -154 251 -290 305 -467 24 -80 27 -106
27 -230 0 -143 -17 -250 -64 -400 l-19 -60 -112 -45 c-269 -106 -554 -271
-773 -446 -55 -44 -217 -181 -360 -304 -295 -253 -478 -402 -607 -492 -319
-226 -610 -365 -900 -430 -146 -33 -402 -33 -531 0 -353 89 -616 294 -1129
882 -262 300 -376 420 -513 537 -374 322 -732 441 -1152 383 -103 -14 -148
-36 -166 -80 -13 -28 -18 -21 -447 623 -623 933 -733 1101 -904 1387 -261 436
-430 747 -695 1278 -336 677 -571 1207 -1144 2577 -506 1210 -717 1690 -1031
2348 -36 76 -60 135 -54 131 6 -4 79 -64 161 -132z m-13626 55 c46 -25 79 -79
99 -164 17 -70 17 -76 0 -130 -39 -122 -154 -327 -334 -593 -298 -442 -479
-624 -826 -833 -363 -218 -794 -379 -1200 -448 -228 -39 -667 -35 -682 6 -11
28 79 184 306 530 192 291 282 446 330 566 l31 77 117 -59 c165 -84 267 -111
412 -112 81 -1 134 4 179 17 354 97 583 471 617 1006 l6 106 82 -8 c100 -9
291 5 496 37 180 28 316 29 367 2z m-2047 -361 c0 -14 -10 -30 -26 -41 -49
-32 -107 -90 -135 -135 -18 -29 -29 -40 -32 -30 -20 67 -52 139 -69 157 l-20
22 43 12 c85 23 155 37 197 38 38 1 42 -1 42 -23z m-430 -359 c0 -58 -31 -177
-69 -267 -49 -115 -120 -235 -311 -525 -254 -385 -341 -550 -373 -703 -23
-109 34 -155 245 -199 106 -22 150 -26 318 -27 107 -1 233 2 280 6 l85 7 -105
-29 c-269 -76 -710 -162 -1000 -195 -171 -20 -560 -32 -560 -18 0 21 83 212
156 356 305 609 834 1281 1247 1584 40 29 75 53 80 53 4 0 7 -20 7 -43z m-576
-109 c-490 -501 -988 -1274 -1168 -1811 -52 -156 -45 -225 27 -264 47 -26 541
-25 777 0 551 61 1069 184 2040 487 940 293 1378 399 2940 710 1224 244 1658
341 1947 435 59 19 109 33 110 31 9 -8 -202 -209 -281 -268 -256 -191 -632
-349 -1121 -472 -267 -67 -659 -137 -1265 -226 -593 -87 -909 -144 -1147 -206
-54 -14 -345 -94 -648 -179 -612 -171 -917 -252 -1200 -319 -875 -206 -1535
-287 -2158 -265 -247 9 -337 18 -337 34 0 12 51 165 223 670 127 370 167 549
167 739 0 165 -30 262 -107 347 -167 185 -467 202 -976 54 -205 -59 -418 -145
-682 -275 -189 -93 -446 -233 -537 -294 -57 -38 -25 -6 40 40 89 63 204 159
392 329 342 308 462 393 661 468 194 73 314 74 538 3 429 -136 748 -140 1126
-15 139 46 441 192 635 308 74 44 137 80 139 80 2 1 -59 -63 -135 -141z
m-1484 -668 c127 -36 167 -140 136 -350 -27 -179 -58 -280 -285 -940 -90 -262
-143 -456 -135 -492 l6 -28 -579 0 c-878 0 -1280 26 -1707 110 -158 31 -365
85 -379 99 -21 21 251 312 440 471 510 427 1236 844 1787 1025 327 108 578
145 716 105z m-2883 -1142 c-201 -201 -366 -418 -383 -504 -8 -43 18 -99 58
-124 79 -48 423 -146 668 -189 441 -78 843 -101 1780 -101 856 -1 1131 -12
1845 -75 1356 -121 2378 -314 3020 -572 1129 -453 2257 -1810 2863 -3445 99
-266 238 -725 224 -740 -9 -9 -468 -141 -739 -213 -156 -41 -210 -52 -220 -44
-21 18 -182 262 -270 409 -115 193 -223 392 -447 823 -395 759 -488 911 -742
1207 -501 583 -1085 990 -1769 1233 -682 242 -1280 343 -3660 622 -1212 142
-1964 240 -2291 300 -76 14 -341 71 -589 126 -535 119 -637 141 -859 179 -93
16 -171 31 -173 33 -2 2 95 63 214 135 400 241 860 548 1358 906 149 107 271
195 272 195 1 1 -71 -72 -160 -161z m16124 -497 c-36 -69 -138 -236 -279 -456
-346 -537 -469 -780 -542 -1070 -40 -158 -55 -323 -40 -466 20 -200 38 -215
246 -206 396 18 730 173 1088 508 111 103 269 286 484 559 313 397 417 518
557 642 185 165 368 264 544 293 l44 7 -6 -59 c-19 -182 -134 -413 -417 -838
-323 -484 -422 -722 -422 -1005 0 -330 143 -578 447 -773 100 -64 217 -121
487 -235 252 -107 346 -152 443 -210 301 -179 766 -639 1110 -1097 113 -150
328 -473 437 -655 285 -477 555 -1037 814 -1689 242 -608 397 -922 630 -1279
324 -495 592 -779 1471 -1564 313 -280 563 -646 733 -1079 l52 -133 -26 -21
c-60 -48 -321 -204 -461 -276 -329 -169 -598 -247 -917 -265 l-118 -7 -16 38
c-26 64 -72 253 -93 385 -26 160 -35 237 -66 560 -74 772 -164 1060 -478 1524
-118 174 -242 328 -581 726 -930 1088 -1951 2317 -2418 2910 -530 674 -635
832 -1093 1655 -406 730 -547 958 -659 1071 -134 134 -208 137 -576 21 -165
-51 -334 -91 -485 -113 -132 -20 -179 -11 -324 56 -146 68 -237 87 -351 72
-243 -30 -374 -116 -638 -417 -162 -185 -206 -228 -352 -344 -771 -617 -1856
-1181 -3238 -1682 -225 -82 -785 -269 -790 -264 -2 1 -23 74 -47 161 -143 521
-310 948 -568 1458 -100 199 -110 223 -75 180 77 -92 214 -219 306 -282 259
-177 523 -250 867 -239 582 19 1233 289 2135 888 951 630 1628 1193 2102 1746
115 134 156 188 376 491 222 305 344 460 468 591 86 92 244 234 252 227 2 -2
-6 -22 -17 -45z m-18911 -830 c-47 -27 -440 -147 -440 -135 0 6 81 41 165 71
132 46 322 91 275 64z m38618 -987 c571 -148 839 -1087 557 -1951 -47 -144
-48 -146 -75 -92 -73 143 -228 298 -315 315 -130 24 -386 -269 -590 -676 -161
-321 -283 -643 -617 -1625 -351 -1035 -507 -1439 -709 -1836 -147 -291 -278
-485 -434 -648 -193 -200 -365 -281 -573 -268 -117 7 -187 34 -261 102 -167
156 -207 366 -231 1210 -5 207 -16 401 -26 475 -58 450 -212 675 -504 736
-257 54 -411 -98 -490 -482 -39 -190 -59 -410 -85 -924 -35 -707 -65 -932
-151 -1122 -57 -126 -33 -180 97 -218 194 -57 377 -147 780 -380 256 -149 441
-248 549 -294 l65 -27 -80 -45 c-138 -77 -415 -210 -540 -259 -300 -119 -686
-237 -1570 -480 -526 -145 -1134 -318 -1184 -336 -18 -7 -1 16 60 78 917 944
1404 1553 1649 2065 100 211 141 358 143 518 1 111 -14 182 -55 264 -109 217
-372 326 -784 326 -180 0 -289 -13 -429 -49 -58 -15 -105 -27 -105 -26 0 1 51
41 113 88 188 143 295 237 452 398 431 443 853 1056 1055 1535 23 54 47 104
54 110 6 6 65 30 131 53 680 242 1040 460 1376 833 228 253 364 445 699 983
416 668 567 873 841 1140 421 410 854 595 1187 509z m-32861 -186 c149 -247
208 -507 318 -1403 97 -790 185 -1151 356 -1461 135 -244 486 -637 773 -866
551 -440 1184 -653 1812 -608 418 29 1673 265 2599 488 l200 48 89 -94 c152
-158 321 -271 467 -312 l64 -17 -55 -11 c-157 -32 -702 -117 -845 -131 -250
-26 -596 -43 -1355 -66 -1118 -34 -1699 -73 -2280 -151 -229 -30 -502 -76
-597 -100 -22 -6 -23 -4 -18 19 17 67 -84 336 -200 529 -118 197 -173 271
-537 729 -459 579 -574 765 -692 1122 -177 536 -280 1270 -248 1763 6 99 20
231 31 294 20 119 66 280 79 280 4 0 22 -24 39 -52z m13943 -687 c78 -82 242
-353 597 -991 505 -906 604 -1053 1271 -1890 451 -566 1535 -1869 2201 -2644
546 -636 687 -825 833 -1117 139 -277 192 -519 253 -1157 45 -467 80 -675 156
-908 43 -134 70 -182 114 -203 42 -21 334 -18 480 4 373 56 727 198 1143 460
68 43 125 76 126 74 2 -2 14 -40 26 -83 l22 -80 -43 -34 c-144 -115 -297 -311
-358 -455 -59 -143 -73 -216 -78 -414 -20 -693 209 -1173 634 -1335 l83 -31
-37 -66 c-53 -97 -117 -195 -187 -288 l-61 -83 -1815 0 c-998 0 -3344 3 -5212
7 l-3397 6 -6 41 c-24 145 -125 660 -170 866 -92 415 -172 692 -440 1520 -172
532 -223 699 -320 1055 -88 322 -150 531 -324 1087 -371 1189 -510 1733 -585
2293 -43 317 -52 668 -22 830 21 112 55 232 70 244 6 5 88 32 181 61 1128 347
1913 783 2223 1233 158 229 212 487 153 732 -54 224 -95 241 -360 152 -73 -25
-129 -42 -125 -38 5 4 61 43 124 86 143 96 425 308 545 408 50 42 163 159 255
263 233 264 307 323 450 360 94 24 150 15 279 -45 60 -28 135 -58 167 -66 166
-43 483 5 884 134 195 63 221 64 270 12z m-19228 -446 c500 -604 1244 -1318
2168 -2085 195 -161 198 -161 -75 5 -358 217 -491 315 -835 610 -671 577
-1092 1062 -1379 1590 -40 73 -35 68 121 -120z m38330 -732 c69 -77 116 -182
138 -310 l13 -72 -41 -70 c-23 -38 -137 -213 -253 -388 -518 -781 -580 -931
-754 -1843 -98 -511 -121 -609 -202 -845 -70 -206 -135 -328 -270 -507 -292
-387 -598 -711 -955 -1010 -236 -198 -558 -428 -599 -428 -45 0 -232 71 -376
143 -82 42 -248 132 -369 202 -385 224 -540 304 -725 374 l-27 10 19 68 c53
186 80 436 109 988 11 215 25 451 31 525 29 376 80 604 151 686 34 38 51 41
125 19 105 -31 180 -116 227 -256 54 -161 71 -341 86 -914 12 -482 33 -657
100 -860 68 -204 184 -348 340 -423 119 -57 221 -76 374 -69 141 7 208 23 331
81 286 136 553 451 809 956 221 435 365 805 726 1870 396 1167 560 1570 768
1886 60 91 168 224 182 224 4 0 23 -17 42 -37z m-21819 -218 c15 -97 -6 -218
-59 -333 -168 -370 -730 -742 -1617 -1071 -241 -89 -496 -175 -502 -169 -7 7
122 196 203 298 107 134 364 393 515 518 317 263 645 472 1020 648 143 67 395
165 417 161 9 -1 18 -20 23 -52z m-1448 -428 c-251 -185 -536 -456 -717 -680
-108 -135 -241 -338 -306 -469 l-53 -106 -132 -37 c-277 -78 -1047 -265 -1092
-265 -11 0 -10 6 2 31 14 28 14 44 -1 163 -9 72 -28 202 -43 289 -14 86 -24
159 -22 161 2 2 159 56 349 119 670 223 1296 470 1845 727 105 48 192 89 195
89 3 0 -8 -10 -25 -22z m23330 -454 c-70 -267 -207 -642 -360 -988 -140 -316
-375 -790 -375 -757 0 6 20 117 45 245 113 589 193 818 410 1183 116 195 310
485 313 469 2 -8 -13 -76 -33 -152z m-10360 -339 c102 -20 232 -68 328 -124
204 -116 395 -294 755 -705 266 -302 470 -512 597 -614 183 -147 367 -252 542
-310 163 -55 240 -66 443 -65 160 0 202 4 310 27 358 75 712 249 1095 537 142
108 214 166 540 445 351 301 418 354 550 441 120 79 359 208 375 202 6 -2 -24
-66 -66 -143 -298 -545 -748 -1109 -1149 -1441 -454 -375 -866 -597 -1264
-681 -110 -23 -149 -27 -311 -27 -200 0 -297 14 -466 70 -110 35 -321 141
-430 213 -310 208 -860 744 -1370 1336 -246 286 -684 834 -684 856 0 12 90 4
205 -17z m-15572 -240 c27 -128 56 -349 46 -355 -27 -16 -389 -84 -444 -82
-113 3 -252 73 -389 196 l-59 53 264 72 c145 40 329 92 409 116 80 24 149 43
155 42 5 -1 13 -20 18 -42z m15502 -329 c693 -865 1409 -1585 1843 -1854 495
-307 1016 -370 1566 -189 67 21 128 42 136 45 8 3 -53 -48 -135 -114 -83 -66
-250 -202 -370 -302 -399 -333 -625 -492 -860 -606 -201 -98 -370 -145 -579
-161 -74 -5 -88 -4 -84 7 3 8 43 73 88 144 173 274 248 466 257 660 9 173 -7
191 -197 220 -320 51 -577 208 -784 478 -103 135 -168 252 -386 692 -209 421
-364 697 -639 1135 -68 108 -60 99 144 -155z m-23168 -166 c321 -474 792 -772
1292 -815 l83 -7 -118 -43 c-359 -132 -711 -359 -889 -573 -123 -147 -233
-352 -243 -452 -9 -97 31 -128 232 -179 224 -57 310 -65 671 -65 282 0 359 4
525 24 378 44 661 96 1410 256 267 57 557 117 645 134 153 29 1002 162 1245
195 1204 162 1949 90 2630 -255 268 -135 470 -286 715 -533 170 -170 297 -322
437 -523 688 -982 1190 -2578 1347 -4283 21 -221 48 -746 40 -754 -3 -3 -1062
-10 -2354 -16 -6466 -29 -8974 -40 -9426 -40 l-497 0 -6 38 c-14 82 -18 612
-7 759 56 704 267 1543 621 2469 153 398 212 508 692 1269 634 1008 854 1418
950 1778 16 61 22 111 22 197 0 105 -3 122 -30 195 -52 134 -148 276 -288 423
l-60 63 17 27 c110 171 153 337 182 703 9 112 19 211 21 219 3 8 22 -16 47
-60 24 -41 66 -109 94 -151z m23713 -3744 c-53 -155 -172 -323 -313 -445 -165
-142 -347 -253 -681 -415 -578 -281 -668 -326 -750 -374 -49 -28 -93 -48 -96
-44 -9 10 -52 154 -48 158 11 10 589 440 710 528 312 227 614 412 850 519 109
50 310 126 335 127 8 1 6 -15 -7 -54z m2100 -1527 c-14 -11 -110 -89 -215
-173 -696 -555 -1367 -1010 -1978 -1339 -72 -39 -87 -44 -77 -27 32 62 180
241 294 359 420 433 972 775 1816 1128 96 41 177 73 180 73 3 0 -6 -9 -20 -21z
m-4042 -403 c22 -104 77 -379 121 -610 45 -231 92 -474 106 -540 14 -66 25
-143 25 -172 0 -50 -24 -195 -35 -213 -10 -16 -134 37 -209 87 -211 143 -330
432 -356 864 -14 245 9 385 92 539 61 115 195 273 209 247 4 -6 25 -97 47
-202z"/>
</g>
</svg>
