<svg width="740" height="261" viewBox="0 0 740 261" xmlns="http://www.w3.org/2000/svg">
    <path d="M458.483 261H298.122c-.41 0-.802-.18-1.05-.486a1.127 1.127 0 0 1-.202-1.063c.28-.847.64-1.67 1.076-2.456h-2.001c-.457 0-.874-.216-1.115-.576a1.115 1.115 0 0 1-.046-1.171l9.994-18.014c.221-.402.671-.654 1.16-.654h61.713c.717 0 1.297.534 1.304 1.195 0 .66-.567 1.2-1.284 1.206-.555.006-49.947.83-64.738 15.612H454.46l-7.757-15.612h-72.097c-.424 0-.815-.186-1.063-.504-3.422-4.407-4.263-8.592-2.51-12.435.789-1.724 2.067-3.279 3.677-4.672h-7.49c-.678 0-1.245-.48-1.297-1.11l-.437-5.206c-.026-.337.098-.66.345-.907.248-.246.594-.384.959-.384h23.304c7.02-2.18 13.33-3.11 13.872-3.189.443-.06.88.084 1.173.384.294.307.405.727.287 1.117-.495 1.676-1.44 2.882-2.81 3.585-1.786.919-3.663.636-4.295.498h-7.751c-2.477.775-5.02 1.706-7.386 2.804h19.25c4.172 0 6.838-.738 7.497-2.077.808-1.64-1.2-4.33-1.962-5.14l-10.359-10.694c-6.434-4.263-6.89-9.013-6.903-9.217v-3.296h-74.275c-2.757.162-5.17 2.39-7.047 5.037 2.53 2.847 3.892 5.83 4.375 7.926.013.066.026.138.026.21.026.733 0 1.442-.085 2.12 15.247-.93 35.977-.456 46.12 7.41 1.043.81 4.224 3.278 2.999 5.68-1.037 2.03-4.974 4.077-26.35 1.91-9.262-.943-18.389-2.354-21.654-2.877l-.972 4.474 14.14 2.978c19.601 4.611 32.952-3.35 33.082-3.429a1.392 1.392 0 0 1 1.558.078c.443.343.593.907.365 1.4l-2.81 6.004c-.117.246-.319.45-.573.582-15.534 7.764-47.072-1.903-48.408-2.317-.62-.193-.991-.781-.86-1.375l.455-2.09-5.215-1.099a19.643 19.643 0 0 1-2.816 5.266c-3.363 4.467-10.247 9.433-23.91 7.758-8.683-1.069-15.15-4.15-19.224-9.157-4.994-6.137-4.798-13.234-4.583-15.51-6.297-4.047-19.302-2.287-32.763 4.51-5.671 2.864-12.17 4.023-17.894 4.383l16.206 9.15c2.17 1.142 5.058 2.955 4.64 5.249-.436 2.426-4.308 3.224-5.077 3.356l-134.775 18.02c-11.415 1.213-16.61-3.032-17.151-3.507l-23.005-18.392s-.046-.036-.065-.06c-2.725-2.51-2.62-5.115-2.555-5.722v-4.239c-.796-1.327-1.193-2.402-1.239-2.516-.013-.03-.02-.066-.033-.102l-.384-1.483H1.304c-.717 0-1.304-.54-1.304-1.201 0-.66.587-1.2 1.304-1.2H41.96c.222 0 .437.053.626.15v-2.246c-.684.036-1.193.144-1.258.156-.352.078-.73.018-1.03-.174-.3-.187-.509-.48-.56-.817l-11.043-66.146c-1.937-9.367 6.108-11.336 6.186-11.354a.894.894 0 0 1 .221-.03l128.205-8.809h.098c7.046 0 9.602 4.3 9.973 6.6l15.202 70.426c.665 2.606.41 4.834-.77 6.587-1.518 2.246-4.021 2.804-4.126 2.822a1.09 1.09 0 0 1-.137.024L51.003 227.765c-.052 0-.105.006-.157.006-2.34 0-4.21-.997-5.652-2.282v1.081c0 .066 0 .132-.02.198-.006.06-.247 1.844 1.78 3.73l22.999 18.385s.045.036.065.06c.039.036 4.57 3.969 15.006 2.858l134.684-18.007c1.369-.247 2.855-.937 2.933-1.387 0-.012.124-.937-3.396-2.787l-19.628-11.078a71.174 71.174 0 0 1-5.176-.204l6.22 4.06c.436.281.638.786.514 1.266-.13.48-.56.835-1.088.9L72.319 240.58a1.369 1.369 0 0 1-1.043-.295l-12.17-10.009a1.143 1.143 0 0 1-.379-1.249c.15-.45.574-.775 1.076-.835l132.983-16.014c.293-.036.593.024.847.169l6.669 3.764c6.232-.036 14.158-.882 20.703-4.197 15.02-7.583 29.23-9.109 36.218-3.885.359.27.535.697.47 1.117-.013.078-1.239 8.01 4.022 14.453 3.637 4.455 9.51 7.211 17.464 8.19 9.784 1.207 17.196-1.129 21.427-6.743a17.385 17.385 0 0 0 2.405-4.431l-6.043-1.273c-.567-.12-.984-.577-1.01-1.111-.026-.54.332-1.027.886-1.201.072-.024 3.696-1.17 7.282-3.615-.098-1.783-.49-3.29-1.07-4.287a58.344 58.344 0 0 0-1.088-1.807c-3.774.432-6.121.804-6.225.822-.587.096-1.174-.192-1.415-.696 0 0-1.91-3.104-12.516-4.912-10.808-1.843-16.473 5.068-16.531 5.134-.411.516-1.193.642-1.774.288l-5.215-3.2c-.534-.33-.73-.967-.462-1.501 1.316-2.63 6.994-11.09 24.777-9.5 11.656 1.04 17.119 5.825 20.697 10.97 2.243-.245 4.857-.498 7.719-.708.11-.672.163-1.375.143-2.107-.15-.57-.926-3.23-3.207-6.113-1.213 2.12-2.073 4.21-2.503 5.506-.163.487-.64.829-1.193.853-.548.018-1.063-.282-1.265-.75-1.004-2.318-4.615-5.08-10.723-8.203-7.295-3.729-18.54-1.597-18.65-1.573a1.365 1.365 0 0 1-1.246-.378 1.128 1.128 0 0 1-.26-1.183c.254-.703 3.018-6.78 20.52-4.714 6.715.793 11.559 3.38 14.916 6.401 2.164-2.894 5.09-5.422 8.748-5.608h74.385v-5.602c0-.66.587-1.201 1.304-1.201h100.389c5.423 0 6.401-3.891 6.519-4.498v-11.913H231.194c-.495 0-.945-.258-1.167-.666-1.42-2.618-1.05-8.73-1.004-9.421.046-.63.613-1.129 1.304-1.129h264.225V13.615H225.979v139.304c0 9.517 3.175 17.215 9.44 22.877 11.25 10.166 29.151 10.724 31.895 10.748h.385c.717 0 1.297.529 1.304 1.19.006.66-.56 1.2-1.278 1.212h-43.917c-4.582 0-8.135-1.219-10.573-3.627-3.54-3.5-3.37-8.25-3.338-8.814V11.213c0-3.405 1.121-6.125 3.325-8.082C216.938-.154 222.329 0 222.557 0h273.735c8.546 0 11.128 6.51 11.297 9.95V177.73c0 3.362-1.089 6.022-3.227 7.92-3.448 3.05-8.35 2.9-8.559 2.888H393.296v3.146c.052.396.652 4.035 5.932 7.488.078.054.15.114.215.18l10.47 10.808c.423.45 4.021 4.407 2.378 7.722-1.16 2.341-4.387 3.482-9.869 3.482h-23.63c-2.438 1.603-4.375 3.465-5.352 5.602-1.337 2.925-.73 6.077 1.851 9.608h70.22l-13.676-27.519a1.118 1.118 0 0 1 .09-1.147 1.339 1.339 0 0 1 1.096-.552h75.872c.54 0 1.03.306 1.219.774.189.469.052.997-.352 1.327l-21.382 17.42c.626.36 1.506.804 2.634 1.236l27.874-23.243c.398-.336.978-.402 1.46-.186 5.293 2.438 9.472 1.285 13.898.06 2.308-.637 4.687-1.297 7.197-1.387 8.755-.324 12.979 2.81 13.155 2.948.287.216.456.534.47.877.012.336-.125.666-.392.906l-23.135 20.944c-.41.372-1.043.45-1.552.192-5.723-2.954-10.58-1.399-16.205.402-4.296 1.376-9.165 2.93-14.974 2.552-2.888-.186-5.293-.69-7.229-1.29l-1.402 1.164c3.625.949 11.16 2.582 17.223 1.742 2.784-.385 5.032-1.441 7.203-2.462 4.23-1.988 8.592-4.041 16.284-.943 1.18-.78 3.833-2.294 7.386-3.002l20.951-20.452c.137-.132.3-.234.489-.3 6.87-2.402 11.682.54 15.554 2.9 1.564.955 3.037 1.856 4.446 2.288 4.954 1.525 12.978 1.537 13.057 1.537.495 0 .951.258 1.166.667.222.408.17.9-.13 1.26l-1.72 2.072h31.648c.717 0 1.303.54 1.303 1.201v20.265c0 .565.32 13.967 20.456 13.967 21.16 0 22.81-9.86 22.81-12.88l.058-37.702c-2.953 1.447-4.967 2.87-5.013 2.9-.391.276-.926.33-1.369.126-.443-.204-.73-.618-.73-1.08v-10.418c-4.055 2.233-10.665 2.563-16.31 2.563-2.705 0-5.723-.468-8.279-1.284-1.818-.583-2.725-2.87-2.314-4.528.32-1.285 1.532-2.564 3.95-2.306.796.084 1.708.265 2.667.45 1.675.331 3.578.703 5.469.703 7.392 0 11.962-1.35 12.692-2.18-.724-.828-5.3-2.179-12.692-2.179s-13.35 1.273-15.104 3.248c-3.435 3.867-5.28 17.57-5.697 22.517-.053.643-.646 1.141-1.35 1.105-.697-.024-1.251-.552-1.251-1.2v-22.752c0-.114.02-.234.052-.348.104-.33 2.861-8.076 22.978-8.436 21.727-.397 24.765 9.325 24.882 9.739.027.102.046.204.046.306l-.013 9.26c2.673-.98 5.665-1.688 8.637-1.7 2.816.012 5.085.816 6.754 2.384 2.816 2.654 2.777 6.526 2.777 6.689v9.95h49.353c.717 0 1.304.54 1.304 1.2 0 .66-.587 1.2-1.304 1.2h-49.353v7.669c-.013.336-.346 7.265-4.505 10.363-1.72 1.28-3.807 1.736-6.206 1.345-2.985-.48-4.921-2.083-5-2.15a1.155 1.155 0 0 1-.423-.888v-5.956c0-.42.235-.811.626-1.027a1.392 1.392 0 0 1 1.277-.036c1.487.708 4.166 1.489 5.19.907.37-.21.553-.697.547-1.454v-8.76h-6.343c-.717 0-1.304-.54-1.304-1.201v-12.255c0-.366.183-.709.49-.937 1.785-1.315 3.578-1.831 5.332-1.513 2.731.486 4.204 2.846 4.263 2.948.11.18.17.384.17.589v9.973h3.272v-9.973c0-.048.013-3.075-2.047-5.002-1.16-1.087-2.803-1.64-4.89-1.651-2.926-.042-5.977.84-8.63 1.909l-.059 38.867c0 3.585-1.831 15.282-25.416 15.282s-23.064-16.207-23.064-16.369v-19.064h-32.34l-16.89 20.337a1.296 1.296 0 0 1-1.081.469c-4.01-.126-6.858-.697-9.153-1.543l-3.135 3.164a1.37 1.37 0 0 1-1.226.366l-27.815-5.206a1.265 1.265 0 0 1-.985-.816 1.134 1.134 0 0 1 .294-1.19l4.191-4.094c-1.44.702-2.307 1.357-2.405 1.435-.391.3-.932.366-1.395.168-6.988-3.032-10.567-1.345-14.713.606-2.36 1.111-4.798 2.258-8.005 2.702-8.905 1.231-20.136-2.305-20.612-2.455a1.251 1.251 0 0 1-.854-.895 1.137 1.137 0 0 1 .404-1.129l2.17-1.807c-2.248-.997-3.389-1.946-3.48-2.024a1.14 1.14 0 0 1-.417-.895c0-.342.162-.66.436-.888l20.02-16.314h-70.397l13.325 26.822h4.452c.495 0 .952.264 1.173.672l9.563 18.014c.196.372.17.81-.065 1.165a1.333 1.333 0 0 1-1.108.564h-3.872l1.14 2.306c.183.372.15.804-.09 1.147a1.339 1.339 0 0 1-1.096.552l.026.012zM300 258.598h156.45l-.795-1.603H300.932c-.352.516-.665 1.05-.933 1.603zm157.33-4.005h2.973l-8.285-15.612h-2.445l7.757 15.612zm-159.253 0h1.5c7.131-8.802 24.315-13.306 39.64-15.612h-32.47l-8.663 15.612h-.007zm235.536-19.16 24.79 4.635 2.12-2.137c-1.448-.769-2.712-1.646-4.036-2.57-2.014-1.405-4.302-2.99-7.738-4.504-3.37-1.483-6.518-1.645-9.158-1.255l-5.972 5.83h-.006zm31.244 1.687c1.754.54 3.872.9 6.682 1.027l15.267-18.38h-4.759l-17.183 17.353h-.007zm-501.898-6.893 9.596 7.89 123.895-15.528-7.731-5.044c-.502-.324-.685-.924-.45-1.447.241-.516.834-.816 1.44-.714.06.012 2.12.348 5.313.558l-2.366-1.333-129.703 15.618h.006zm479.278-3.212c2.347.024 4.922.486 7.634 1.675 3.67 1.621 6.069 3.284 8.187 4.755 1.46 1.015 2.764 1.922 4.27 2.666l18.18-18.355a1.34 1.34 0 0 1 .966-.39h7.333l1.382-1.67c-2.927-.126-7.738-.504-11.303-1.597-1.734-.535-3.344-1.52-5.059-2.564-3.657-2.234-7.438-4.54-12.914-2.75l-18.67 18.224-.006.006zm133.367 6.899a8.854 8.854 0 0 0 3.273 1.26c1.642.265 2.992-.011 4.113-.846 2.692-2.006 3.468-6.845 3.533-8.538v-7.62h-3.272v8.748c.02 2.06-.965 3.045-1.793 3.513-1.708.96-4.152.474-5.847-.078v3.555l-.007.006zm-181.775-4.918c1.467.366 3.188.654 5.156.78 5.28.343 9.68-1.062 13.937-2.425 5.698-1.826 11.102-3.549 17.464-.649l21.264-19.25c-1.669-.775-5.013-1.88-10.11-1.693-2.184.078-4.303.666-6.552 1.29-4.295 1.19-9.145 2.528-15 .139l-26.153 21.808h-.006zm-180.739-5.242c5.639 1.615 31.714 8.52 44.85 2.354l1.153-2.468c-5.372 2.264-16.747 5.626-31.753 2.096l-14.041-2.955-.209.973zm-267.908-2.138c1.148 1.742 3.012 3.723 5.574 3.76l132.383-14.796c.626-.156 4.217-1.315 2.881-6.55l-15.221-70.494s-.007-.042-.013-.066c-.033-.18-.86-4.551-7.353-4.575L35.41 137.692c-.893.246-5.554 1.861-4.16 8.592l10.848 64.999a6.14 6.14 0 0 1 .47-.024V198.24l-9.114-56.755c-.052-.33.046-.666.274-.924.228-.258.56-.42.92-.45l132.545-9.206c.652-.048 1.245.367 1.375.961l16.082 73.657c.072.33-.006.673-.221.943-.216.27-.542.45-.907.486L49.236 221.364c-.665.072-1.284-.336-1.427-.942l-1.102-4.732c-.287-.835-.86-1.339-1.539-1.64v7.566h.013zm261.03-2.792 5.06 1.063 1.205-5.56c.137-.642.809-1.063 1.513-.943.11.018 11.33 1.904 22.75 3.063 21.63 2.197 23.546-.259 23.696-.547.13-.252-.19-1.165-2.32-2.816-9.557-7.415-30.078-7.716-44.987-6.767-1.147 3.555-3.702 6.293-6.408 8.322a20.443 20.443 0 0 1-.508 4.185zm62.203.144h9.595c1.689-1.044 3.553-1.975 5.483-2.804h-15.306l.234 2.804h-.006zM45.18 211.505c1.741.426 3.37 1.447 4.049 3.53.013.03.02.06.026.097l.867 3.716 131.705-14.134-15.574-71.334-130.003 9.031 8.924 55.566c.006.06.013.12.013.174v13.354h-.007zm256.213 6.305 2.282.48c.143-.624.248-1.249.326-1.855-.92.534-1.806.99-2.608 1.375zm374.203-2.042h5.039v-9.613c-.34-.432-1.167-1.34-2.334-1.537-.821-.144-1.734.096-2.699.702v10.454l-.006-.006zm-276.297-1.88c.502.049 1.316.049 2.04-.33.072-.036.143-.078.215-.126-.658.126-1.421.277-2.249.457h-.006zm-94.542-6.874c.196.33.391.654.58.984.522.907.932 2.126 1.16 3.549 1.546-1.393 2.915-3.062 3.762-5.026-1.982.15-3.833.324-5.502.493zm-26.649-7.2c1.298 0 2.686.108 4.153.36 9.165 1.562 12.614 4.137 13.826 5.477.874-.133 2.353-.343 4.303-.589-3.299-4.353-8.201-8.04-18.064-8.917-3.918-.348-16.727-.81-21.655 7.206l3.285 2.017c1.8-1.765 6.539-5.554 14.14-5.554h.012zm384.418-9.847c.143 0 .287.024.423.066.528.168.88.624.88 1.135v10.7a44.816 44.816 0 0 1 4.511-2.36l.013-10.136c-.417-.99-4.054-8.178-22.268-7.836-16.512.3-20.006 5.699-20.481 6.617v6.9c.925-3.441 2.131-6.581 3.676-8.329 2.295-2.588 8.696-4.13 17.125-4.13 5.697 0 15.345.966 15.345 4.58 0 3.615-9.648 4.582-15.345 4.582-2.164 0-4.303-.42-6.017-.756-.9-.175-1.747-.343-2.418-.415-.965-.108-1.056.246-1.109.457-.182.726.326 1.62.626 1.723 2.288.732 4.994 1.153 7.419 1.153 5.847 0 13.93-.36 16.59-3.489a1.356 1.356 0 0 1 1.023-.462h.007zm-381.523-1.387c3.924 0 8.63.528 12.516 2.516 5.045 2.582 8.422 4.887 10.358 7.097.535-1.225 1.284-2.792 2.262-4.383-2.849-2.738-7.223-5.296-13.852-6.077-8.018-.949-12.49-.072-14.935.99a47.618 47.618 0 0 1 3.65-.143zM222.394 2.404c-.73 0-4.72.108-7.366 2.468-1.67 1.483-2.517 3.62-2.517 6.34V176.62c0 .036-.267 4.203 2.653 7.073 1.923 1.891 4.83 2.846 8.644 2.846h26.981c-5.775-1.64-12.053-4.395-17.177-9.025-6.792-6.13-10.234-14.404-10.234-24.6v-140.5c0-.66.587-1.2 1.304-1.2h271.18c.717 0 1.304.54 1.304 1.2V152.92c0 .66-.587 1.2-1.304 1.2H231.579c-.066 2.072.039 4.834.521 6.408h268.11c.717 0 1.304.54 1.304 1.2v13.21c0 .055 0 .115-.013.169-.359 2.293-2.719 6.635-9.114 6.635h-99.085v4.4h102.56c.098 0 4.08.109 6.714-2.233 1.604-1.423 2.412-3.5 2.412-6.172V10.012c-.013-.252-.521-7.608-8.69-7.608H222.395z" fill="#FFF" fill-rule="nonzero"/>
</svg>
